<?xml version="1.0" encoding="utf-8"?>
<!-- Generator: Adobe Illustrator 16.0.0, SVG Export Plug-In . SVG Version: 6.00 Build 0)  -->
<!DOCTYPE svg PUBLIC "-//W3C//DTD SVG 1.1//EN" "http://www.w3.org/Graphics/SVG/1.1/DTD/svg11.dtd">
<svg version="1.1" xmlns="http://www.w3.org/2000/svg" xmlns:xlink="http://www.w3.org/1999/xlink" x="0px" y="0px" width="216px"
	 height="216px" viewBox="0 0 216 216" enable-background="new 0 0 216 216" xml:space="preserve">
<g id="Layer_1">
	<text transform="matrix(1 0 0 1 9 84.9185)" display="none"><tspan x="0" y="0" display="inline" fill="#11CFFF" font-family="'FranklinGothic-Medium'" font-size="15.0225">A long time ago in a galaxy far,</tspan><tspan x="0" y="18.027" display="inline" fill="#11CFFF" font-family="'FranklinGothic-Medium'" font-size="15.0225">far away. . . .</tspan><tspan x="0" y="54.082" display="inline" fill="#11CFFF" font-family="'FranklinGothic-Medium'" font-size="15.0225">      Click for the Wars of RPA</tspan></text>
	<g>
		<path display="none" fill="#11CFFF" d="M17.957,84.918h-1.929l-0.8-2.384h-3.851l-0.785,2.384H9.051l3.323-10.013h2.223
			L17.957,84.918z M14.744,81.089l-1.46-4.467l-1.459,4.467H14.744z"/>
		<path display="none" fill="#11CFFF" d="M24.484,84.918h-1.672V74.906h1.672V84.918z"/>
		<path display="none" fill="#11CFFF" d="M29.392,85.072c-1.096,0-1.932-0.394-2.509-1.181s-0.865-1.689-0.865-2.707
			c0-1.096,0.319-2.007,0.957-2.736c0.638-0.729,1.48-1.093,2.527-1.093c0.993,0,1.808,0.354,2.446,1.063s0.958,1.631,0.958,2.766
			c0,1.168-0.332,2.109-0.994,2.82S30.409,85.072,29.392,85.072z M29.451,83.693c1.125,0,1.687-0.838,1.687-2.516
			c0-0.758-0.134-1.356-0.403-1.794c-0.269-0.438-0.682-0.656-1.24-0.656c-0.577,0-1.005,0.226-1.284,0.679
			c-0.278,0.452-0.418,1.052-0.418,1.801c0,0.807,0.148,1.423,0.444,1.848C28.533,83.481,28.938,83.693,29.451,83.693z"/>
		<path display="none" fill="#11CFFF" d="M40.571,84.918h-1.672V80.29c0-0.489-0.113-0.857-0.337-1.104
			c-0.225-0.247-0.497-0.371-0.814-0.371c-0.435,0-0.816,0.191-1.144,0.572s-0.492,0.956-0.492,1.724v3.807h-1.672V77.51h1.526
			v1.717c0.533-1.247,1.281-1.871,2.245-1.871c0.65,0,1.207,0.205,1.668,0.616c0.462,0.411,0.693,1.132,0.693,2.164V84.918z"/>
		<path display="none" fill="#11CFFF" d="M49.329,76.094v1.284h-0.514c-0.225,0-0.422,0.027-0.59,0.081
			c-0.169,0.054-0.334,0.228-0.495,0.521c0.587,0.479,0.88,1.012,0.88,1.599c0,0.655-0.275,1.198-0.825,1.628
			c-0.55,0.43-1.278,0.646-2.183,0.646c-0.391,0-0.848-0.063-1.372-0.191c-0.342,0.157-0.513,0.398-0.513,0.726
			c0,0.181,0.083,0.347,0.249,0.499c0.167,0.151,0.418,0.227,0.756,0.227h2.2c0.753,0,1.344,0.195,1.771,0.583
			c0.428,0.389,0.642,0.872,0.642,1.449c0,0.699-0.324,1.279-0.972,1.738s-1.607,0.689-2.879,0.689
			c-2.391,0-3.587-0.667-3.587-2.002c0-0.66,0.359-1.161,1.078-1.504c-0.459-0.391-0.689-0.799-0.689-1.225
			c0-0.646,0.394-1.159,1.181-1.541c-0.685-0.416-1.027-0.988-1.027-1.716c0-0.616,0.251-1.142,0.755-1.577
			c0.503-0.435,1.269-0.653,2.296-0.653c0.47,0,0.946,0.051,1.43,0.154c0.225-0.944,0.819-1.416,1.783-1.416H49.329z M43.696,84.515
			c-0.24,0.22-0.36,0.433-0.36,0.638c0,0.337,0.201,0.634,0.602,0.891s1.039,0.385,1.915,0.385c1.286,0,1.929-0.33,1.929-0.99
			c0-0.245-0.112-0.429-0.337-0.554c-0.225-0.125-0.481-0.187-0.77-0.187h-1.775C44.561,84.698,44.16,84.637,43.696,84.515z
			 M45.529,80.862c0.91,0,1.364-0.428,1.364-1.284c0-0.328-0.113-0.604-0.341-0.829c-0.228-0.225-0.559-0.337-0.994-0.337
			c-0.44,0-0.781,0.117-1.023,0.352c-0.242,0.235-0.363,0.528-0.363,0.88c0,0.362,0.12,0.655,0.359,0.88
			C44.771,80.75,45.104,80.862,45.529,80.862z"/>
		<path display="none" fill="#11CFFF" d="M57.544,83.613v1.306c-0.499,0.107-0.885,0.161-1.159,0.161
			c-0.45,0-0.836-0.089-1.159-0.268c-0.323-0.178-0.559-0.423-0.708-0.733c-0.149-0.311-0.224-0.789-0.224-1.434v-3.836h-0.924
			V77.51h1.02l0.154-1.929l1.372-0.125v2.054h1.489v1.298h-1.489v3.616c0,0.465,0.084,0.781,0.253,0.95
			c0.168,0.168,0.488,0.253,0.957,0.253C57.258,83.627,57.397,83.623,57.544,83.613z"/>
		<path display="none" fill="#11CFFF" d="M60.618,76.645h-1.672v-1.739h1.672V76.645z M60.618,84.918h-1.672V77.51h1.672V84.918z"/>
		<path display="none" fill="#11CFFF" d="M73.689,84.918h-1.753v-4.614c0-0.958-0.426-1.438-1.276-1.438
			c-0.494,0-0.889,0.181-1.185,0.543c-0.296,0.362-0.444,0.902-0.444,1.621v3.888h-1.775v-4.614c0-0.973-0.398-1.46-1.195-1.46
			c-0.484,0-0.892,0.196-1.222,0.587s-0.495,0.924-0.495,1.599v3.888h-1.724V77.51h1.621v1.577c0.528-1.154,1.352-1.731,2.472-1.731
			c1.09,0,1.799,0.577,2.127,1.731c0.597-1.154,1.42-1.731,2.472-1.731c0.714,0,1.289,0.223,1.724,0.667s0.653,0.998,0.653,1.658
			V84.918z"/>
		<path display="none" fill="#11CFFF" d="M80.409,82.557l1.511,0.205c-0.195,0.67-0.577,1.223-1.144,1.658
			c-0.567,0.436-1.279,0.653-2.135,0.653c-1.027,0-1.854-0.345-2.479-1.034c-0.626-0.689-0.939-1.624-0.939-2.802
			c0-1.12,0.315-2.047,0.946-2.78c0.63-0.733,1.486-1.1,2.567-1.1c1.057,0,1.873,0.362,2.45,1.085s0.866,1.653,0.866,2.788
			l-0.007,0.19h-5.083c0,0.504,0.048,0.907,0.143,1.21s0.285,0.567,0.568,0.792c0.284,0.225,0.638,0.337,1.063,0.337
			C79.563,83.759,80.12,83.358,80.409,82.557z M80.306,80.341c-0.005-0.533-0.165-0.968-0.48-1.306s-0.705-0.506-1.17-0.506
			c-0.459,0-0.843,0.158-1.151,0.473s-0.489,0.762-0.543,1.339H80.306z"/>
		<path display="none" fill="#11CFFF" d="M93.671,84.918h-1.592c-0.142-0.45-0.228-0.949-0.257-1.497
			c-0.445,1.101-1.281,1.65-2.509,1.65c-0.738,0-1.331-0.216-1.779-0.649c-0.447-0.433-0.671-0.977-0.671-1.632
			c0-1.702,1.494-2.552,4.481-2.552c0.118,0,0.276,0.002,0.477,0.007v-0.558c0-0.768-0.523-1.152-1.57-1.152
			c-1.017,0-1.594,0.384-1.731,1.152l-1.423-0.213c0.078-0.616,0.396-1.124,0.954-1.522c0.558-0.398,1.364-0.598,2.421-0.598
			c0.572,0,1.039,0.047,1.401,0.143c0.362,0.095,0.667,0.256,0.917,0.484s0.422,0.475,0.517,0.741
			c0.095,0.267,0.143,0.718,0.143,1.354v3.345C93.451,83.906,93.524,84.405,93.671,84.918z M91.822,81.148
			c-2.162,0-3.242,0.516-3.242,1.548c0,0.308,0.109,0.571,0.326,0.789c0.218,0.218,0.547,0.327,0.987,0.327
			c0.636,0,1.116-0.202,1.441-0.605s0.488-0.862,0.488-1.375V81.148z"/>
		<path display="none" fill="#11CFFF" d="M102.209,76.094v1.284h-0.514c-0.225,0-0.422,0.027-0.59,0.081
			c-0.169,0.054-0.334,0.228-0.495,0.521c0.587,0.479,0.88,1.012,0.88,1.599c0,0.655-0.275,1.198-0.825,1.628
			c-0.55,0.43-1.278,0.646-2.183,0.646c-0.391,0-0.848-0.063-1.372-0.191c-0.342,0.157-0.513,0.398-0.513,0.726
			c0,0.181,0.083,0.347,0.249,0.499c0.167,0.151,0.418,0.227,0.756,0.227h2.2c0.753,0,1.344,0.195,1.771,0.583
			c0.428,0.389,0.642,0.872,0.642,1.449c0,0.699-0.324,1.279-0.972,1.738s-1.607,0.689-2.879,0.689
			c-2.391,0-3.587-0.667-3.587-2.002c0-0.66,0.359-1.161,1.078-1.504c-0.459-0.391-0.689-0.799-0.689-1.225
			c0-0.646,0.394-1.159,1.181-1.541c-0.685-0.416-1.027-0.988-1.027-1.716c0-0.616,0.251-1.142,0.755-1.577
			c0.503-0.435,1.269-0.653,2.296-0.653c0.47,0,0.946,0.051,1.43,0.154c0.225-0.944,0.819-1.416,1.783-1.416H102.209z
			 M96.576,84.515c-0.24,0.22-0.36,0.433-0.36,0.638c0,0.337,0.201,0.634,0.602,0.891s1.039,0.385,1.915,0.385
			c1.286,0,1.929-0.33,1.929-0.99c0-0.245-0.112-0.429-0.337-0.554c-0.225-0.125-0.481-0.187-0.77-0.187h-1.775
			C97.441,84.698,97.04,84.637,96.576,84.515z M98.409,80.862c0.91,0,1.364-0.428,1.364-1.284c0-0.328-0.113-0.604-0.341-0.829
			c-0.228-0.225-0.559-0.337-0.994-0.337c-0.44,0-0.781,0.117-1.023,0.352c-0.242,0.235-0.363,0.528-0.363,0.88
			c0,0.362,0.12,0.655,0.359,0.88C97.651,80.75,97.984,80.862,98.409,80.862z"/>
		<path display="none" fill="#11CFFF" d="M106.133,85.072c-1.096,0-1.932-0.394-2.509-1.181s-0.865-1.689-0.865-2.707
			c0-1.096,0.319-2.007,0.957-2.736c0.638-0.729,1.48-1.093,2.527-1.093c0.993,0,1.808,0.354,2.446,1.063s0.958,1.631,0.958,2.766
			c0,1.168-0.332,2.109-0.994,2.82C107.99,84.717,107.15,85.072,106.133,85.072z M106.191,83.693c1.125,0,1.687-0.838,1.687-2.516
			c0-0.758-0.134-1.356-0.403-1.794c-0.269-0.438-0.682-0.656-1.24-0.656c-0.577,0-1.005,0.226-1.284,0.679
			c-0.278,0.452-0.418,1.052-0.418,1.801c0,0.807,0.148,1.423,0.444,1.848C105.273,83.481,105.678,83.693,106.191,83.693z"/>
		<path display="none" fill="#11CFFF" d="M116.6,76.645h-1.672v-1.739h1.672V76.645z M116.6,84.918h-1.672V77.51h1.672V84.918z"/>
		<path display="none" fill="#11CFFF" d="M124.742,84.918h-1.672V80.29c0-0.489-0.112-0.857-0.338-1.104
			c-0.225-0.247-0.496-0.371-0.813-0.371c-0.436,0-0.817,0.191-1.145,0.572c-0.328,0.381-0.491,0.956-0.491,1.724v3.807h-1.673
			V77.51h1.525v1.717c0.533-1.247,1.281-1.871,2.245-1.871c0.65,0,1.206,0.205,1.669,0.616c0.462,0.411,0.692,1.132,0.692,2.164
			V84.918z"/>
		<path display="none" fill="#11CFFF" d="M136.839,84.918h-1.592c-0.142-0.45-0.228-0.949-0.257-1.497
			c-0.445,1.101-1.281,1.65-2.509,1.65c-0.738,0-1.331-0.216-1.778-0.649c-0.448-0.433-0.672-0.977-0.672-1.632
			c0-1.702,1.494-2.552,4.482-2.552c0.117,0,0.276,0.002,0.477,0.007v-0.558c0-0.768-0.523-1.152-1.569-1.152
			c-1.018,0-1.595,0.384-1.731,1.152l-1.423-0.213c0.078-0.616,0.396-1.124,0.953-1.522s1.364-0.598,2.421-0.598
			c0.572,0,1.039,0.047,1.401,0.143c0.361,0.095,0.667,0.256,0.916,0.484c0.25,0.228,0.422,0.475,0.518,0.741
			c0.096,0.267,0.143,0.718,0.143,1.354v3.345C136.618,83.906,136.692,84.405,136.839,84.918z M134.99,81.148
			c-2.161,0-3.242,0.516-3.242,1.548c0,0.308,0.108,0.571,0.326,0.789c0.218,0.218,0.547,0.327,0.986,0.327
			c0.636,0,1.116-0.202,1.441-0.605s0.488-0.862,0.488-1.375V81.148z"/>
		<path display="none" fill="#11CFFF" d="M149.132,76.094v1.284h-0.514c-0.225,0-0.422,0.027-0.591,0.081
			c-0.168,0.054-0.333,0.228-0.495,0.521c0.587,0.479,0.881,1.012,0.881,1.599c0,0.655-0.275,1.198-0.825,1.628
			c-0.551,0.43-1.277,0.646-2.183,0.646c-0.391,0-0.849-0.063-1.371-0.191c-0.343,0.157-0.514,0.398-0.514,0.726
			c0,0.181,0.083,0.347,0.249,0.499c0.166,0.151,0.418,0.227,0.756,0.227h2.2c0.753,0,1.344,0.195,1.771,0.583
			s0.642,0.872,0.642,1.449c0,0.699-0.323,1.279-0.972,1.738c-0.647,0.459-1.607,0.689-2.879,0.689
			c-2.392,0-3.587-0.667-3.587-2.002c0-0.66,0.359-1.161,1.078-1.504c-0.46-0.391-0.689-0.799-0.689-1.225
			c0-0.646,0.394-1.159,1.181-1.541c-0.685-0.416-1.026-0.988-1.026-1.716c0-0.616,0.252-1.142,0.756-1.577
			c0.503-0.435,1.269-0.653,2.296-0.653c0.469,0,0.945,0.051,1.43,0.154c0.225-0.944,0.819-1.416,1.782-1.416H149.132z
			 M143.498,84.515c-0.239,0.22-0.359,0.433-0.359,0.638c0,0.337,0.2,0.634,0.602,0.891s1.039,0.385,1.915,0.385
			c1.286,0,1.929-0.33,1.929-0.99c0-0.245-0.112-0.429-0.337-0.554c-0.226-0.125-0.482-0.187-0.771-0.187h-1.775
			C144.364,84.698,143.963,84.637,143.498,84.515z M145.332,80.862c0.909,0,1.364-0.428,1.364-1.284
			c0-0.328-0.113-0.604-0.341-0.829c-0.228-0.225-0.559-0.337-0.994-0.337c-0.44,0-0.781,0.117-1.023,0.352s-0.362,0.528-0.362,0.88
			c0,0.362,0.119,0.655,0.359,0.88C144.574,80.75,144.906,80.862,145.332,80.862z"/>
		<path display="none" fill="#11CFFF" d="M156.497,84.918h-1.592c-0.142-0.45-0.228-0.949-0.257-1.497
			c-0.445,1.101-1.281,1.65-2.509,1.65c-0.738,0-1.331-0.216-1.778-0.649c-0.448-0.433-0.672-0.977-0.672-1.632
			c0-1.702,1.494-2.552,4.482-2.552c0.117,0,0.276,0.002,0.477,0.007v-0.558c0-0.768-0.523-1.152-1.569-1.152
			c-1.018,0-1.595,0.384-1.731,1.152l-1.423-0.213c0.078-0.616,0.396-1.124,0.953-1.522s1.364-0.598,2.421-0.598
			c0.572,0,1.039,0.047,1.401,0.143c0.361,0.095,0.667,0.256,0.916,0.484c0.25,0.228,0.422,0.475,0.518,0.741
			c0.096,0.267,0.143,0.718,0.143,1.354v3.345C156.276,83.906,156.351,84.405,156.497,84.918z M154.648,81.148
			c-2.161,0-3.242,0.516-3.242,1.548c0,0.308,0.108,0.571,0.326,0.789c0.218,0.218,0.547,0.327,0.986,0.327
			c0.636,0,1.116-0.202,1.441-0.605s0.488-0.862,0.488-1.375V81.148z"/>
		<path display="none" fill="#11CFFF" d="M159.944,84.918h-1.672V74.906h1.672V84.918z"/>
		<path display="none" fill="#11CFFF" d="M168.292,84.918H166.7c-0.142-0.45-0.228-0.949-0.257-1.497
			c-0.445,1.101-1.281,1.65-2.509,1.65c-0.738,0-1.331-0.216-1.778-0.649c-0.448-0.433-0.672-0.977-0.672-1.632
			c0-1.702,1.494-2.552,4.482-2.552c0.117,0,0.276,0.002,0.477,0.007v-0.558c0-0.768-0.523-1.152-1.569-1.152
			c-1.018,0-1.595,0.384-1.731,1.152l-1.423-0.213c0.078-0.616,0.396-1.124,0.953-1.522s1.364-0.598,2.421-0.598
			c0.572,0,1.039,0.047,1.401,0.143c0.361,0.095,0.667,0.256,0.916,0.484c0.25,0.228,0.422,0.475,0.518,0.741
			c0.096,0.267,0.143,0.718,0.143,1.354v3.345C168.071,83.906,168.146,84.405,168.292,84.918z M166.443,81.148
			c-2.161,0-3.242,0.516-3.242,1.548c0,0.308,0.108,0.571,0.326,0.789c0.218,0.218,0.547,0.327,0.986,0.327
			c0.636,0,1.116-0.202,1.441-0.605s0.488-0.862,0.488-1.375V81.148z"/>
		<path display="none" fill="#11CFFF" d="M175.7,84.918h-1.907l-1.569-2.699l-1.717,2.699h-1.438l2.465-3.814l-2.135-3.594h1.914
			l1.218,2.179l1.387-2.179h1.401l-2.091,3.213L175.7,84.918z"/>
		<path display="none" fill="#11CFFF" d="M182.236,77.51l-2.883,8.436c-0.177,0.519-0.417,0.92-0.723,1.207
			s-0.737,0.429-1.295,0.429c-0.22,0-0.54-0.017-0.961-0.051v-1.328l0.8,0.015c0.352,0,0.612-0.058,0.781-0.172
			c0.168-0.115,0.302-0.319,0.399-0.612c0.098-0.293,0.146-0.465,0.146-0.514c0-0.029-0.051-0.181-0.153-0.455l-2.546-6.954h1.753
			l1.798,4.885l1.547-4.885H182.236z"/>
		<path display="none" fill="#11CFFF" d="M188.97,84.918h-1.613v-6.11h-1.101V77.51h1.101v-0.367c0-0.724,0.176-1.306,0.528-1.746
			c0.352-0.44,1.063-0.66,2.135-0.66c0.156,0,0.354,0.005,0.594,0.015v1.313c-0.21-0.015-0.354-0.022-0.433-0.022
			c-0.411,0-0.699,0.055-0.866,0.165c-0.166,0.11-0.265,0.24-0.297,0.389c-0.031,0.149-0.048,0.454-0.048,0.913h1.644v1.298h-1.644
			V84.918z"/>
		<path display="none" fill="#11CFFF" d="M198.183,84.918h-1.592c-0.142-0.45-0.228-0.949-0.257-1.497
			c-0.445,1.101-1.281,1.65-2.509,1.65c-0.738,0-1.331-0.216-1.778-0.649c-0.448-0.433-0.672-0.977-0.672-1.632
			c0-1.702,1.494-2.552,4.482-2.552c0.117,0,0.276,0.002,0.477,0.007v-0.558c0-0.768-0.523-1.152-1.569-1.152
			c-1.018,0-1.595,0.384-1.731,1.152l-1.423-0.213c0.078-0.616,0.396-1.124,0.953-1.522s1.364-0.598,2.421-0.598
			c0.572,0,1.039,0.047,1.401,0.143c0.361,0.095,0.667,0.256,0.916,0.484c0.25,0.228,0.422,0.475,0.518,0.741
			c0.096,0.267,0.143,0.718,0.143,1.354v3.345C197.962,83.906,198.036,84.405,198.183,84.918z M196.334,81.148
			c-2.161,0-3.242,0.516-3.242,1.548c0,0.308,0.108,0.571,0.326,0.789c0.218,0.218,0.547,0.327,0.986,0.327
			c0.636,0,1.116-0.202,1.441-0.605s0.488-0.862,0.488-1.375V81.148z"/>
		<path display="none" fill="#11CFFF" d="M201.638,84.918h-1.673V77.51h1.511v1.768c0.216-0.689,0.512-1.193,0.888-1.511
			c0.377-0.318,0.763-0.477,1.159-0.477c0.054,0,0.127,0.002,0.22,0.007v1.797c-0.851,0-1.414,0.271-1.69,0.814
			c-0.276,0.542-0.414,1.068-0.414,1.577V84.918z"/>
		<path display="none" fill="#11CFFF" d="M206.105,83.048v1.68l-1.182,2.333h-0.646l0.873-2.142h-0.873v-1.871H206.105z"/>
		<path display="none" fill="#11CFFF" d="M11.875,102.945h-1.614v-6.11H9.161v-1.298h1.101V95.17c0-0.724,0.176-1.306,0.528-1.746
			c0.352-0.44,1.063-0.66,2.134-0.66c0.156,0,0.354,0.005,0.594,0.015v1.313c-0.21-0.015-0.354-0.022-0.433-0.022
			c-0.411,0-0.7,0.055-0.866,0.165c-0.167,0.11-0.265,0.24-0.297,0.389c-0.032,0.149-0.047,0.454-0.047,0.913h1.643v1.298h-1.643
			V102.945z"/>
		<path display="none" fill="#11CFFF" d="M21.089,102.945h-1.592c-0.142-0.45-0.228-0.949-0.257-1.497
			c-0.445,1.101-1.281,1.65-2.509,1.65c-0.738,0-1.331-0.216-1.779-0.649c-0.447-0.433-0.671-0.977-0.671-1.632
			c0-1.702,1.494-2.552,4.481-2.552c0.118,0,0.276,0.002,0.477,0.007v-0.558c0-0.768-0.523-1.152-1.57-1.152
			c-1.017,0-1.594,0.384-1.731,1.152l-1.423-0.213c0.078-0.616,0.396-1.124,0.954-1.522c0.558-0.398,1.364-0.598,2.421-0.598
			c0.572,0,1.039,0.047,1.401,0.143c0.362,0.095,0.667,0.256,0.917,0.484s0.422,0.475,0.517,0.741
			c0.095,0.267,0.143,0.718,0.143,1.354v3.345C20.869,101.933,20.942,102.432,21.089,102.945z M19.24,99.175
			c-2.162,0-3.242,0.516-3.242,1.548c0,0.308,0.109,0.571,0.326,0.789c0.218,0.218,0.547,0.327,0.987,0.327
			c0.636,0,1.116-0.202,1.441-0.605s0.488-0.862,0.488-1.375V99.175z"/>
		<path display="none" fill="#11CFFF" d="M24.543,102.945h-1.672v-7.409h1.511v1.768c0.215-0.689,0.511-1.193,0.887-1.511
			c0.377-0.318,0.763-0.477,1.159-0.477c0.054,0,0.127,0.002,0.22,0.007v1.797c-0.851,0-1.415,0.271-1.691,0.814
			c-0.276,0.542-0.415,1.068-0.415,1.577V102.945z"/>
		<path display="none" fill="#11CFFF" d="M37.945,102.945h-1.592c-0.142-0.45-0.228-0.949-0.257-1.497
			c-0.445,1.101-1.281,1.65-2.509,1.65c-0.738,0-1.331-0.216-1.779-0.649c-0.447-0.433-0.671-0.977-0.671-1.632
			c0-1.702,1.494-2.552,4.481-2.552c0.118,0,0.276,0.002,0.477,0.007v-0.558c0-0.768-0.523-1.152-1.57-1.152
			c-1.017,0-1.594,0.384-1.731,1.152l-1.423-0.213c0.078-0.616,0.396-1.124,0.954-1.522c0.558-0.398,1.364-0.598,2.421-0.598
			c0.572,0,1.039,0.047,1.401,0.143c0.362,0.095,0.667,0.256,0.917,0.484s0.422,0.475,0.517,0.741
			c0.095,0.267,0.143,0.718,0.143,1.354v3.345C37.725,101.933,37.798,102.432,37.945,102.945z M36.096,99.175
			c-2.162,0-3.242,0.516-3.242,1.548c0,0.308,0.109,0.571,0.326,0.789c0.218,0.218,0.547,0.327,0.987,0.327
			c0.636,0,1.116-0.202,1.441-0.605s0.488-0.862,0.488-1.375V99.175z"/>
		<path display="none" fill="#11CFFF" d="M48.904,95.537l-2.171,7.409h-1.504l-1.335-5.193l-1.328,5.193h-1.548l-2.281-7.409h1.775
			l1.459,4.981l1.276-4.981h1.519l1.298,4.981l1.43-4.981H48.904z"/>
		<path display="none" fill="#11CFFF" d="M56.254,102.945h-1.592c-0.142-0.45-0.228-0.949-0.257-1.497
			c-0.445,1.101-1.281,1.65-2.509,1.65c-0.738,0-1.331-0.216-1.779-0.649c-0.447-0.433-0.671-0.977-0.671-1.632
			c0-1.702,1.494-2.552,4.481-2.552c0.118,0,0.276,0.002,0.477,0.007v-0.558c0-0.768-0.523-1.152-1.57-1.152
			c-1.017,0-1.594,0.384-1.731,1.152l-1.423-0.213c0.078-0.616,0.396-1.124,0.954-1.522c0.558-0.398,1.364-0.598,2.421-0.598
			c0.572,0,1.039,0.047,1.401,0.143c0.362,0.095,0.667,0.256,0.917,0.484s0.422,0.475,0.517,0.741
			c0.095,0.267,0.143,0.718,0.143,1.354v3.345C56.034,101.933,56.107,102.432,56.254,102.945z M54.405,99.175
			c-2.162,0-3.242,0.516-3.242,1.548c0,0.308,0.109,0.571,0.326,0.789c0.218,0.218,0.547,0.327,0.987,0.327
			c0.636,0,1.116-0.202,1.441-0.605s0.488-0.862,0.488-1.375V99.175z"/>
		<path display="none" fill="#11CFFF" d="M63.31,95.537l-2.883,8.436c-0.176,0.519-0.417,0.92-0.722,1.207
			c-0.306,0.286-0.737,0.429-1.295,0.429c-0.22,0-0.541-0.017-0.961-0.051v-1.328l0.8,0.015c0.352,0,0.612-0.058,0.781-0.172
			c0.169-0.115,0.302-0.319,0.4-0.612c0.098-0.293,0.147-0.465,0.147-0.514c0-0.029-0.052-0.181-0.154-0.455l-2.545-6.954h1.753
			l1.797,4.885l1.548-4.885H63.31z"/>
		<path display="none" fill="#11CFFF" d="M65.599,101.023v1.922h-1.812v-1.922H65.599z"/>
		<path display="none" fill="#11CFFF" d="M72.97,101.023v1.922h-1.812v-1.922H72.97z"/>
		<path display="none" fill="#11CFFF" d="M80.342,101.023v1.922h-1.812v-1.922H80.342z"/>
		<path display="none" fill="#11CFFF" d="M87.714,101.023v1.922h-1.812v-1.922H87.714z"/>
		<path fill="#11CFFF" d="M35.231,135.522l1.672,0.184c-0.108,1.003-0.495,1.827-1.163,2.476s-1.544,0.972-2.63,0.972
			c-0.915,0-1.657-0.229-2.226-0.689c-0.57-0.46-1.009-1.083-1.317-1.87s-0.462-1.655-0.462-2.604c0-1.526,0.362-2.768,1.085-3.723
			c0.724-0.957,1.719-1.435,2.985-1.435c0.993,0,1.819,0.306,2.479,0.917s1.076,1.486,1.247,2.626l-1.672,0.176
			c-0.308-1.511-0.988-2.267-2.04-2.267c-0.675,0-1.199,0.314-1.573,0.943c-0.374,0.628-0.561,1.539-0.561,2.732
			c0,1.212,0.2,2.128,0.602,2.746c0.401,0.619,0.931,0.928,1.591,0.928c0.528,0,0.978-0.207,1.35-0.623
			C34.972,136.596,35.182,136.1,35.231,135.522z"/>
		<path fill="#11CFFF" d="M39.903,139h-1.672v-10.014h1.672V139z"/>
		<path fill="#11CFFF" d="M43.578,130.726h-1.672v-1.739h1.672V130.726z M43.578,139h-1.672v-7.409h1.672V139z"/>
		<path fill="#11CFFF" d="M49.864,136.278l1.438,0.146c-0.186,0.929-0.545,1.616-1.079,2.062c-0.533,0.445-1.176,0.667-1.929,0.667
			c-1.022,0-1.808-0.372-2.358-1.118c-0.55-0.746-0.825-1.659-0.825-2.74c0-1.115,0.301-2.036,0.902-2.766
			c0.602-0.729,1.404-1.092,2.406-1.092c1.614,0,2.575,0.85,2.883,2.553l-1.438,0.197c-0.127-0.92-0.58-1.379-1.357-1.379
			c-0.567,0-0.979,0.248-1.236,0.744s-0.385,1.098-0.385,1.801c0,0.748,0.133,1.326,0.4,1.731c0.267,0.406,0.639,0.608,1.119,0.608
			C49.138,137.693,49.625,137.223,49.864,136.278z"/>
		<path fill="#11CFFF" d="M59.554,139h-1.76l-1.893-3.801l-1.643,1.842V139h-1.599v-10.014h1.599v6.213
			c0.142-0.186,0.254-0.324,0.337-0.418l2.934-3.19h1.797l-2.23,2.45L59.554,139z"/>
		<path fill="#11CFFF" d="M66.281,139h-1.614v-6.111h-1.101v-1.298h1.101v-0.366c0-0.725,0.176-1.307,0.528-1.746
			c0.352-0.44,1.063-0.66,2.134-0.66c0.156,0,0.354,0.005,0.594,0.015v1.313c-0.21-0.016-0.354-0.022-0.433-0.022
			c-0.411,0-0.7,0.055-0.866,0.165c-0.167,0.109-0.265,0.24-0.297,0.389c-0.032,0.149-0.047,0.453-0.047,0.913h1.643v1.298h-1.643
			V139z"/>
		<path fill="#11CFFF" d="M71.907,139.153c-1.096,0-1.932-0.394-2.509-1.181s-0.865-1.689-0.865-2.707
			c0-1.096,0.319-2.007,0.957-2.736c0.638-0.729,1.48-1.092,2.527-1.092c0.993,0,1.808,0.354,2.446,1.063s0.958,1.631,0.958,2.766
			c0,1.169-0.332,2.109-0.994,2.82C73.764,138.798,72.924,139.153,71.907,139.153z M71.965,137.774c1.125,0,1.687-0.839,1.687-2.516
			c0-0.759-0.134-1.356-0.403-1.794s-0.682-0.656-1.24-0.656c-0.577,0-1.005,0.227-1.284,0.679
			c-0.278,0.452-0.418,1.052-0.418,1.801c0,0.807,0.148,1.423,0.444,1.849S71.452,137.774,71.965,137.774z"/>
		<path fill="#11CFFF" d="M78.626,139h-1.672v-7.409h1.511v1.769c0.215-0.689,0.511-1.193,0.887-1.512
			c0.377-0.318,0.763-0.477,1.159-0.477c0.054,0,0.127,0.002,0.22,0.008v1.797c-0.851,0-1.415,0.271-1.691,0.814
			c-0.276,0.542-0.415,1.068-0.415,1.576V139z"/>
		<path fill="#11CFFF" d="M89.123,137.693V139c-0.499,0.107-0.885,0.16-1.159,0.16c-0.45,0-0.836-0.088-1.159-0.268
			c-0.323-0.178-0.559-0.422-0.708-0.732c-0.149-0.311-0.224-0.789-0.224-1.435v-3.837h-0.924v-1.298h1.02l0.154-1.929l1.372-0.125
			v2.054h1.489v1.298h-1.489v3.617c0,0.465,0.084,0.781,0.253,0.949c0.168,0.169,0.488,0.254,0.957,0.254
			C88.837,137.709,88.976,137.703,89.123,137.693z"/>
		<path fill="#11CFFF" d="M96.664,139h-1.672v-4.85c0-0.522-0.111-0.891-0.334-1.104s-0.483-0.318-0.781-0.318
			c-0.474,0-0.873,0.188-1.195,0.564s-0.484,0.998-0.484,1.863V139h-1.672v-10.014h1.672v3.902c0.416-1.065,1.145-1.599,2.186-1.599
			c1.521,0,2.281,0.873,2.281,2.618V139z"/>
		<path fill="#11CFFF" d="M103.383,136.638l1.511,0.205c-0.195,0.671-0.577,1.223-1.144,1.657c-0.567,0.436-1.279,0.653-2.135,0.653
			c-1.027,0-1.854-0.345-2.479-1.034c-0.626-0.689-0.939-1.623-0.939-2.802c0-1.12,0.315-2.047,0.946-2.78
			c0.63-0.733,1.486-1.1,2.567-1.1c1.057,0,1.873,0.361,2.45,1.085s0.866,1.653,0.866,2.788l-0.007,0.189h-5.083
			c0,0.504,0.048,0.908,0.143,1.211s0.285,0.567,0.568,0.792c0.284,0.226,0.638,0.337,1.063,0.337
			C102.537,137.84,103.094,137.439,103.383,136.638z M103.28,134.422c-0.005-0.533-0.165-0.968-0.48-1.305
			c-0.315-0.338-0.705-0.507-1.17-0.507c-0.459,0-0.843,0.157-1.151,0.474c-0.308,0.314-0.489,0.762-0.543,1.338H103.28z"/>
		<path fill="#11CFFF" d="M122.425,128.986L119.747,139h-1.893l-1.995-7.365L114.048,139h-1.856l-2.736-10.014h1.915l1.937,7.299
			l1.805-7.299h1.826l1.995,7.299l1.9-7.299H122.425z"/>
		<path fill="#11CFFF" d="M129.496,139h-1.592c-0.142-0.45-0.228-0.949-0.257-1.497c-0.445,1.101-1.281,1.65-2.509,1.65
			c-0.738,0-1.331-0.216-1.778-0.649c-0.448-0.432-0.672-0.977-0.672-1.632c0-1.702,1.494-2.552,4.482-2.552
			c0.117,0,0.276,0.002,0.477,0.007v-0.558c0-0.768-0.523-1.152-1.569-1.152c-1.018,0-1.595,0.385-1.731,1.152l-1.423-0.213
			c0.078-0.616,0.396-1.123,0.953-1.521s1.364-0.598,2.421-0.598c0.572,0,1.039,0.047,1.401,0.143
			c0.361,0.096,0.667,0.256,0.916,0.484c0.25,0.227,0.422,0.475,0.518,0.74c0.096,0.267,0.143,0.718,0.143,1.354v3.345
			C129.275,137.987,129.35,138.486,129.496,139z M127.647,135.229c-2.161,0-3.242,0.517-3.242,1.549c0,0.308,0.108,0.57,0.326,0.788
			s0.547,0.327,0.986,0.327c0.636,0,1.116-0.203,1.441-0.605c0.325-0.404,0.488-0.862,0.488-1.375V135.229z"/>
		<path fill="#11CFFF" d="M132.951,139h-1.673v-7.409h1.511v1.769c0.216-0.689,0.512-1.193,0.888-1.512
			c0.377-0.318,0.763-0.477,1.159-0.477c0.054,0,0.127,0.002,0.22,0.008v1.797c-0.851,0-1.414,0.271-1.69,0.814
			c-0.276,0.542-0.414,1.068-0.414,1.576V139z"/>
		<path fill="#11CFFF" d="M135.54,137.298l1.57-0.301c0.239,0.602,0.768,0.902,1.584,0.902c1.037,0,1.555-0.306,1.555-0.917
			c0-0.195-0.08-0.357-0.241-0.484c-0.162-0.127-0.353-0.213-0.572-0.256l-1.35-0.258c-1.497-0.288-2.245-1.02-2.245-2.193
			c0-0.654,0.237-1.211,0.712-1.668c0.474-0.457,1.181-0.686,2.119-0.686c1.565,0,2.521,0.574,2.868,1.723l-1.488,0.301
			c-0.157-0.557-0.602-0.836-1.335-0.836c-0.891,0-1.336,0.279-1.336,0.836c0,0.387,0.36,0.653,1.079,0.8l1.592,0.33
			c1.236,0.255,1.855,0.964,1.855,2.128c0,0.816-0.318,1.426-0.954,1.83c-0.636,0.402-1.391,0.604-2.267,0.604
			c-0.758,0-1.428-0.153-2.01-0.458C136.095,138.39,135.716,137.924,135.54,137.298z"/>
		<path fill="#11CFFF" d="M149.917,139.153c-1.096,0-1.932-0.394-2.509-1.181s-0.865-1.689-0.865-2.707
			c0-1.096,0.319-2.007,0.957-2.736c0.639-0.729,1.48-1.092,2.527-1.092c0.992,0,1.808,0.354,2.446,1.063
			c0.638,0.709,0.957,1.631,0.957,2.766c0,1.169-0.331,2.109-0.994,2.82C151.774,138.798,150.934,139.153,149.917,139.153z
			 M149.976,137.774c1.125,0,1.688-0.839,1.688-2.516c0-0.759-0.135-1.356-0.403-1.794c-0.27-0.438-0.683-0.656-1.24-0.656
			c-0.577,0-1.005,0.227-1.283,0.679c-0.279,0.452-0.418,1.052-0.418,1.801c0,0.807,0.147,1.423,0.443,1.849
			S149.462,137.774,149.976,137.774z"/>
		<path fill="#11CFFF" d="M156.834,139h-1.613v-6.111h-1.101v-1.298h1.101v-0.366c0-0.725,0.176-1.307,0.528-1.746
			c0.352-0.44,1.063-0.66,2.135-0.66c0.156,0,0.354,0.005,0.594,0.015v1.313c-0.21-0.016-0.354-0.022-0.433-0.022
			c-0.411,0-0.699,0.055-0.866,0.165c-0.166,0.109-0.265,0.24-0.297,0.389c-0.031,0.149-0.048,0.453-0.048,0.913h1.644v1.298h-1.644
			V139z"/>
		<path fill="#11CFFF" d="M171.365,139h-1.907l-1.556-4.115h-2.538V139h-1.804v-10.014h4.342c1.208,0,2.096,0.273,2.663,0.818
			s0.851,1.251,0.851,2.116c0,1.286-0.602,2.171-1.805,2.655L171.365,139z M165.364,133.439h2.245c0.65,0,1.135-0.137,1.452-0.41
			c0.318-0.274,0.477-0.65,0.477-1.131c0-0.439-0.156-0.795-0.469-1.066c-0.313-0.271-0.751-0.407-1.313-0.407h-2.392V133.439z"/>
		<path fill="#11CFFF" d="M175.018,139h-1.804v-10.014h4.1c1.169,0,2.036,0.295,2.601,0.885c0.565,0.589,0.848,1.285,0.848,2.086
			c0,0.915-0.306,1.656-0.917,2.223c-0.611,0.568-1.387,0.852-2.325,0.852h-2.502V139z M175.018,133.483h2.135
			c0.558,0,0.983-0.137,1.276-0.411c0.294-0.273,0.44-0.638,0.44-1.093c0-0.411-0.136-0.763-0.407-1.056
			c-0.271-0.294-0.762-0.44-1.471-0.44h-1.974V133.483z"/>
		<path fill="#11CFFF" d="M189.409,139h-1.929l-0.8-2.385h-3.851L182.045,139h-1.54l3.322-10.014h2.223L189.409,139z
			 M186.196,135.17l-1.459-4.467l-1.46,4.467H186.196z"/>
	</g>
</g>
<g id="Layer_2">
	<g>
		<path fill="#11CFFF" d="M16.135,84.769h1.613l-3.259-9.713h-2.006l-3.223,9.713h1.224l0.785-2.384h4.067L16.135,84.769z
			 M11.617,81.239l1.667-5.1l1.667,5.1H11.617z"/>
		<rect x="22.962" y="75.056" fill="#11CFFF" width="1.373" height="9.713"/>
		<path fill="#11CFFF" d="M31.837,78.52c-0.605-0.673-1.391-1.014-2.335-1.014c-0.997,0-1.809,0.351-2.414,1.042
			c-0.61,0.697-0.92,1.585-0.92,2.638c0,0.98,0.281,1.861,0.836,2.618c0.552,0.753,1.333,1.12,2.388,1.12
			c0.969,0,1.78-0.343,2.41-1.019c0.633-0.68,0.954-1.594,0.954-2.718C32.756,80.094,32.447,79.197,31.837,78.52z M29.451,83.843
			c-0.563,0-1.013-0.236-1.337-0.703c-0.313-0.449-0.471-1.099-0.471-1.934c0-0.772,0.148-1.405,0.44-1.879
			c0.307-0.498,0.782-0.75,1.412-0.75c0.61,0,1.071,0.245,1.368,0.728c0.282,0.46,0.425,1.09,0.425,1.873
			C31.288,82.946,30.669,83.843,29.451,83.843z"/>
		<path fill="#11CFFF" d="M38.672,79.085c0.25,0.275,0.376,0.68,0.376,1.205v4.479h1.373v-4.633c0-0.982-0.216-1.672-0.643-2.051
			c-0.431-0.384-0.959-0.579-1.569-0.579c-0.906,0-1.595,0.582-2.107,1.78l-0.288,0.674v-2.3h-1.226v7.109h1.373v-3.657
			c0-0.801,0.178-1.414,0.528-1.821c0.356-0.415,0.779-0.625,1.258-0.625C38.107,78.666,38.418,78.807,38.672,79.085z"/>
		<path fill="#11CFFF" d="M45.485,87.424c1.233,0,2.173-0.223,2.792-0.662c0.612-0.434,0.909-0.962,0.909-1.616
			c0-0.538-0.194-0.976-0.593-1.338c-0.398-0.361-0.96-0.544-1.671-0.544h-2.2c-0.375,0-0.663-0.089-0.857-0.266
			c-0.198-0.181-0.298-0.386-0.298-0.61c0-0.384,0.208-0.683,0.601-0.862l0.047-0.022l0.051,0.013
			c0.509,0.124,0.958,0.187,1.336,0.187c0.866,0,1.569-0.207,2.09-0.614c0.517-0.405,0.768-0.898,0.768-1.51
			c0-0.537-0.278-1.036-0.825-1.483l-0.097-0.079l0.06-0.109c0.182-0.332,0.372-0.525,0.581-0.592
			c0.182-0.058,0.396-0.087,0.636-0.087h0.364v-0.984h-0.474c-0.893,0-1.428,0.425-1.637,1.3l-0.034,0.143l-0.143-0.03
			c-0.471-0.1-0.942-0.151-1.399-0.151c-0.985,0-1.725,0.208-2.198,0.616c-0.474,0.409-0.704,0.888-0.704,1.464
			c0,0.679,0.313,1.198,0.955,1.588l0.236,0.143l-0.248,0.12c-0.738,0.357-1.097,0.817-1.097,1.406c0,0.377,0.214,0.751,0.637,1.11
			l0.176,0.15l-0.209,0.1c-0.668,0.319-0.993,0.766-0.993,1.369C42.048,86.818,43.173,87.424,45.485,87.424z M44.431,78.656
			c0.27-0.261,0.648-0.394,1.127-0.394c0.474,0,0.844,0.128,1.1,0.38c0.256,0.253,0.385,0.568,0.385,0.936
			c0,0.938-0.523,1.434-1.514,1.434c-0.462,0-0.833-0.127-1.1-0.378c-0.27-0.253-0.407-0.585-0.407-0.989
			C44.022,79.252,44.16,78.919,44.431,78.656z M43.594,84.405l0.061-0.056l0.079,0.021c0.45,0.118,0.842,0.178,1.165,0.178h1.775
			c0.313,0,0.596,0.069,0.843,0.206c0.271,0.151,0.415,0.388,0.415,0.686c0,0.757-0.699,1.14-2.079,1.14
			c-0.913,0-1.566-0.134-1.996-0.409c-0.445-0.285-0.67-0.627-0.67-1.018C43.186,84.905,43.323,84.653,43.594,84.405z"/>
		<path fill="#11CFFF" d="M54.445,82.645c0,0.621,0.07,1.081,0.209,1.369c0.134,0.28,0.352,0.505,0.645,0.667
			c0.298,0.165,0.664,0.249,1.086,0.249c0.24,0,0.58-0.045,1.009-0.133v-1.025c-0.648,0.026-1.099-0.058-1.332-0.291
			c-0.2-0.2-0.297-0.545-0.297-1.056v-3.766h1.489V77.66h-1.489v-2.04l-1.083,0.099l-0.155,1.941h-1.008v0.999h0.924V82.645z"/>
		<rect x="59.095" y="77.66" fill="#11CFFF" width="1.373" height="7.109"/>
		<rect x="59.095" y="75.056" fill="#11CFFF" width="1.373" height="1.439"/>
		<path fill="#11CFFF" d="M67.406,80.305v4.464h1.476v-3.738c0-0.751,0.161-1.329,0.478-1.716c0.324-0.397,0.762-0.598,1.301-0.598
			c0.651,0,1.426,0.275,1.426,1.588v4.464h1.453v-5.087c0-0.625-0.2-1.133-0.61-1.553c-0.404-0.413-0.948-0.623-1.616-0.623
			c-1,0-1.765,0.54-2.339,1.65L68.8,79.492l-0.104-0.364c-0.31-1.091-0.958-1.622-1.982-1.622c-1.065,0-1.83,0.538-2.336,1.644
			l-0.286,0.625V77.66h-1.321v7.109h1.424v-3.738c0-0.708,0.178-1.279,0.53-1.696c0.358-0.425,0.808-0.64,1.336-0.64
			C66.675,78.695,67.406,78.974,67.406,80.305z"/>
		<path fill="#11CFFF" d="M78.641,84.922c0.818,0,1.506-0.209,2.043-0.622c0.491-0.377,0.84-0.852,1.038-1.414l-1.215-0.165
			c-0.323,0.789-0.918,1.188-1.771,1.188c-0.458,0-0.847-0.125-1.157-0.37c-0.306-0.243-0.514-0.534-0.618-0.865
			c-0.1-0.317-0.15-0.739-0.15-1.255v-0.15H81.9l0.002-0.046c0-1.089-0.28-1.995-0.833-2.688c-0.552-0.692-1.315-1.029-2.333-1.029
			c-1.03,0-1.855,0.353-2.453,1.048c-0.604,0.702-0.91,1.604-0.91,2.683c0,1.135,0.303,2.043,0.9,2.701
			C76.866,84.591,77.662,84.922,78.641,84.922z M76.812,80.328c0.057-0.609,0.253-1.091,0.585-1.43
			c0.336-0.344,0.76-0.518,1.259-0.518c0.505,0,0.936,0.186,1.279,0.554c0.341,0.364,0.516,0.837,0.521,1.407l0.001,0.151h-3.661
			L76.812,80.328z"/>
		<path fill="#11CFFF" d="M91.819,80.396c-0.199-0.005-0.357-0.007-0.474-0.007c-2.915,0-4.332,0.786-4.332,2.402
			c0,0.619,0.205,1.118,0.625,1.524c0.417,0.403,0.98,0.607,1.674,0.607c1.171,0,1.946-0.509,2.37-1.557l0.253-0.625l0.036,0.673
			c0.026,0.491,0.1,0.946,0.218,1.354h1.285c-0.116-0.459-0.174-0.911-0.174-1.347v-3.345c0-0.615-0.045-1.054-0.134-1.303
			c-0.086-0.242-0.247-0.471-0.477-0.68c-0.23-0.21-0.518-0.361-0.854-0.45c-0.347-0.092-0.805-0.138-1.363-0.138
			c-1.02,0-1.805,0.192-2.333,0.57c-0.482,0.345-0.768,0.763-0.869,1.274l1.134,0.17c0.194-0.752,0.815-1.133,1.848-1.133
			c1.421,0,1.72,0.708,1.72,1.302V80.4L91.819,80.396z M91.972,81.831c0,0.546-0.175,1.041-0.521,1.469
			c-0.354,0.439-0.878,0.661-1.558,0.661c-0.479,0-0.847-0.125-1.093-0.371c-0.246-0.246-0.37-0.546-0.37-0.895
			c0-1.126,1.141-1.698,3.392-1.698h0.15V81.831z"/>
		<path fill="#11CFFF" d="M98.365,87.424c1.233,0,2.173-0.223,2.792-0.662c0.612-0.434,0.909-0.962,0.909-1.616
			c0-0.538-0.194-0.976-0.593-1.338c-0.398-0.361-0.96-0.544-1.671-0.544h-2.2c-0.375,0-0.663-0.089-0.857-0.266
			c-0.198-0.181-0.298-0.386-0.298-0.61c0-0.384,0.208-0.683,0.601-0.862l0.047-0.022l0.051,0.013
			c0.509,0.124,0.958,0.187,1.336,0.187c0.866,0,1.569-0.207,2.09-0.614c0.517-0.405,0.768-0.898,0.768-1.51
			c0-0.537-0.278-1.036-0.825-1.483l-0.097-0.079l0.06-0.109c0.182-0.332,0.372-0.525,0.581-0.592
			c0.182-0.058,0.396-0.087,0.636-0.087h0.364v-0.984h-0.474c-0.893,0-1.428,0.425-1.637,1.3l-0.034,0.143l-0.143-0.03
			c-0.471-0.1-0.942-0.151-1.399-0.151c-0.985,0-1.725,0.208-2.198,0.616c-0.474,0.409-0.704,0.888-0.704,1.464
			c0,0.679,0.313,1.198,0.955,1.588l0.236,0.143l-0.248,0.12c-0.738,0.357-1.097,0.817-1.097,1.406c0,0.377,0.214,0.751,0.637,1.11
			l0.176,0.15l-0.209,0.1c-0.668,0.319-0.993,0.766-0.993,1.369C94.928,86.818,96.053,87.424,98.365,87.424z M97.311,78.656
			c0.27-0.261,0.648-0.394,1.127-0.394c0.474,0,0.844,0.128,1.1,0.38c0.256,0.253,0.385,0.568,0.385,0.936
			c0,0.938-0.523,1.434-1.514,1.434c-0.462,0-0.833-0.127-1.1-0.378c-0.27-0.253-0.407-0.585-0.407-0.989
			C96.902,79.252,97.04,78.919,97.311,78.656z M96.474,84.405l0.061-0.056l0.079,0.021c0.45,0.118,0.842,0.178,1.165,0.178h1.775
			c0.313,0,0.596,0.069,0.843,0.206c0.271,0.151,0.415,0.388,0.415,0.686c0,0.757-0.699,1.14-2.079,1.14
			c-0.913,0-1.566-0.134-1.996-0.409c-0.445-0.285-0.67-0.627-0.67-1.018C96.066,84.905,96.203,84.653,96.474,84.405z"/>
		<path fill="#11CFFF" d="M106.243,77.506c-0.997,0-1.809,0.351-2.414,1.042c-0.61,0.697-0.92,1.585-0.92,2.638
			c0,0.98,0.281,1.861,0.836,2.618c0.552,0.753,1.333,1.12,2.388,1.12c0.969,0,1.78-0.343,2.41-1.019
			c0.633-0.68,0.954-1.595,0.954-2.718c0-1.091-0.309-1.988-0.918-2.665C107.972,77.847,107.187,77.506,106.243,77.506z
			 M106.191,83.843c-0.563,0-1.013-0.236-1.337-0.703c-0.313-0.449-0.471-1.099-0.471-1.934c0-0.772,0.148-1.405,0.44-1.879
			c0.307-0.498,0.782-0.75,1.412-0.75c0.61,0,1.071,0.245,1.368,0.728c0.282,0.46,0.425,1.09,0.425,1.873
			C108.028,82.946,107.41,83.843,106.191,83.843z"/>
		<rect x="115.078" y="77.66" fill="#11CFFF" width="1.371" height="7.109"/>
		<rect x="115.078" y="75.056" fill="#11CFFF" width="1.371" height="1.439"/>
		<path fill="#11CFFF" d="M122.844,79.085c0.25,0.274,0.377,0.68,0.377,1.205v4.479h1.371v-4.633c0-0.982-0.216-1.673-0.642-2.051
			c-0.438-0.389-0.951-0.579-1.569-0.579c-0.906,0-1.595,0.582-2.107,1.78l-0.288,0.673V77.66h-1.225v7.109h1.372v-3.657
			c0-0.802,0.178-1.415,0.528-1.821c0.354-0.415,0.778-0.625,1.258-0.625C122.279,78.666,122.59,78.807,122.844,79.085z"/>
		<path fill="#11CFFF" d="M134.986,80.396c-0.198-0.005-0.356-0.007-0.473-0.007c-2.915,0-4.332,0.786-4.332,2.402
			c0,0.619,0.204,1.118,0.626,1.524c0.416,0.403,0.979,0.607,1.674,0.607c1.171,0,1.946-0.509,2.37-1.557l0.253-0.625l0.035,0.673
			c0.026,0.489,0.1,0.944,0.219,1.354h1.285c-0.116-0.461-0.176-0.913-0.176-1.347v-3.345c0-0.617-0.045-1.056-0.134-1.303
			c-0.087-0.243-0.247-0.472-0.477-0.681c-0.23-0.209-0.517-0.361-0.854-0.45c-0.347-0.092-0.806-0.138-1.363-0.138
			c-1.02,0-1.805,0.192-2.334,0.57c-0.481,0.344-0.767,0.762-0.868,1.274l1.135,0.17c0.194-0.752,0.815-1.133,1.848-1.133
			c1.421,0,1.72,0.708,1.72,1.302V80.4L134.986,80.396z M135.141,81.831c0,0.546-0.176,1.04-0.521,1.469
			c-0.354,0.439-0.879,0.661-1.559,0.661c-0.479,0-0.847-0.125-1.093-0.371c-0.245-0.245-0.37-0.546-0.37-0.895
			c0-1.126,1.142-1.698,3.393-1.698h0.15V81.831z"/>
		<path fill="#11CFFF" d="M146.726,83.264h-2.2c-0.375,0-0.663-0.089-0.856-0.266c-0.198-0.181-0.299-0.386-0.299-0.61
			c0-0.384,0.208-0.683,0.602-0.862l0.048-0.022l0.05,0.013c0.508,0.124,0.957,0.187,1.336,0.187c0.865,0,1.569-0.207,2.09-0.614
			c0.517-0.405,0.768-0.898,0.768-1.51c0-0.537-0.277-1.036-0.825-1.483l-0.097-0.079l0.061-0.11
			c0.183-0.331,0.373-0.525,0.58-0.591c0.184-0.058,0.397-0.087,0.637-0.087h0.363v-0.984h-0.474c-0.893,0-1.428,0.425-1.637,1.3
			l-0.033,0.143l-0.144-0.03c-0.472-0.1-0.942-0.151-1.398-0.151c-0.985,0-1.725,0.208-2.198,0.616
			c-0.474,0.409-0.703,0.888-0.703,1.464c0,0.679,0.312,1.198,0.954,1.588l0.235,0.143l-0.248,0.12
			c-0.737,0.357-1.096,0.817-1.096,1.406c0,0.377,0.214,0.751,0.637,1.11l0.176,0.15l-0.209,0.1
			c-0.668,0.319-0.992,0.766-0.992,1.369c0,1.247,1.124,1.853,3.437,1.853c1.234,0,2.173-0.223,2.792-0.662
			c0.611-0.433,0.908-0.961,0.908-1.616c0-0.538-0.193-0.976-0.592-1.338C147.999,83.447,147.437,83.264,146.726,83.264z
			 M144.233,78.656c0.27-0.261,0.649-0.394,1.128-0.394c0.474,0,0.844,0.128,1.1,0.38c0.256,0.253,0.386,0.568,0.386,0.936
			c0,0.938-0.524,1.434-1.515,1.434c-0.463,0-0.833-0.127-1.1-0.378c-0.27-0.252-0.407-0.585-0.407-0.989
			C143.825,79.251,143.963,78.919,144.233,78.656z M145.655,86.58c-0.913,0-1.565-0.134-1.996-0.409
			c-0.445-0.285-0.671-0.627-0.671-1.018c0-0.248,0.138-0.5,0.408-0.749l0.061-0.056l0.079,0.021
			c0.45,0.118,0.842,0.178,1.165,0.178h1.775c0.313,0,0.596,0.069,0.843,0.206c0.271,0.151,0.415,0.388,0.415,0.686
			C147.734,86.196,147.034,86.58,145.655,86.58z"/>
		<path fill="#11CFFF" d="M156.126,80.077c0-0.617-0.045-1.056-0.134-1.303c-0.087-0.243-0.247-0.472-0.477-0.681
			c-0.23-0.209-0.517-0.361-0.854-0.45c-0.347-0.092-0.806-0.138-1.363-0.138c-1.02,0-1.805,0.192-2.334,0.57
			c-0.481,0.344-0.767,0.762-0.868,1.274l1.135,0.17c0.194-0.752,0.815-1.133,1.848-1.133c1.421,0,1.72,0.708,1.72,1.302V80.4
			l-0.154-0.004c-0.198-0.005-0.356-0.007-0.473-0.007c-2.915,0-4.332,0.786-4.332,2.402c0,0.619,0.204,1.118,0.626,1.524
			c0.416,0.403,0.979,0.607,1.674,0.607c1.171,0,1.946-0.509,2.37-1.557l0.253-0.625l0.035,0.673c0.026,0.489,0.1,0.944,0.219,1.354
			h1.285c-0.116-0.461-0.176-0.913-0.176-1.347V80.077z M154.799,81.831c0,0.546-0.176,1.04-0.521,1.469
			c-0.354,0.439-0.879,0.661-1.559,0.661c-0.479,0-0.847-0.125-1.093-0.371c-0.245-0.245-0.37-0.546-0.37-0.895
			c0-1.126,1.142-1.698,3.393-1.698h0.15V81.831z"/>
		<rect x="158.423" y="75.056" fill="#11CFFF" width="1.371" height="9.713"/>
		<path fill="#11CFFF" d="M168.097,84.769c-0.116-0.461-0.176-0.913-0.176-1.347v-3.345c0-0.617-0.045-1.056-0.134-1.303
			c-0.087-0.243-0.247-0.472-0.477-0.681c-0.23-0.209-0.517-0.361-0.854-0.45c-0.347-0.092-0.806-0.138-1.363-0.138
			c-1.02,0-1.805,0.192-2.334,0.57c-0.481,0.344-0.767,0.762-0.868,1.274l1.135,0.17c0.194-0.752,0.815-1.133,1.848-1.133
			c1.421,0,1.72,0.708,1.72,1.302V80.4l-0.154-0.004c-0.198-0.005-0.356-0.007-0.473-0.007c-2.915,0-4.332,0.786-4.332,2.402
			c0,0.619,0.204,1.118,0.626,1.524c0.416,0.403,0.979,0.607,1.674,0.607c1.171,0,1.946-0.509,2.37-1.557l0.253-0.625l0.035,0.673
			c0.026,0.489,0.1,0.944,0.219,1.354H168.097z M166.594,81.831c0,0.546-0.176,1.04-0.521,1.469
			c-0.354,0.439-0.879,0.661-1.559,0.661c-0.479,0-0.847-0.125-1.093-0.371c-0.245-0.245-0.37-0.546-0.37-0.895
			c0-1.126,1.142-1.698,3.393-1.698h0.15V81.831z"/>
		<polygon fill="#11CFFF" points="175.043,77.66 174,77.66 172.522,79.981 171.226,77.66 169.663,77.66 171.711,81.107 
			169.345,84.769 170.425,84.769 172.229,81.931 173.879,84.769 175.438,84.769 173.052,80.719 		"/>
		<path fill="#11CFFF" d="M178.652,84.918c0,0.047-0.013,0.134-0.154,0.561c-0.108,0.324-0.262,0.555-0.457,0.689
			c-0.197,0.133-0.48,0.198-0.866,0.198l-0.649-0.012v1.036c0.348,0.026,0.62,0.04,0.811,0.04c0.516,0,0.917-0.131,1.192-0.389
			c0.285-0.267,0.516-0.652,0.684-1.146l2.814-8.237h-1.017l-1.646,5.199l-1.913-5.199h-1.434l2.472,6.752
			C178.652,84.846,178.652,84.885,178.652,84.918z"/>
		<path fill="#11CFFF" d="M187.507,84.769h1.313v-6.11h1.644V77.66h-1.644v-0.15c0-0.471,0.017-0.78,0.052-0.944
			c0.041-0.189,0.162-0.352,0.36-0.483c0.193-0.128,0.504-0.19,0.949-0.19c0.059,0,0.152,0.004,0.282,0.012v-1.008
			c-0.173-0.006-0.321-0.009-0.443-0.009c-1.019,0-1.697,0.203-2.018,0.604c-0.329,0.41-0.495,0.966-0.495,1.652v0.517h-1.101v0.999
			h1.101V84.769z"/>
		<path fill="#11CFFF" d="M197.812,80.077c0-0.617-0.045-1.056-0.134-1.303c-0.087-0.243-0.247-0.472-0.477-0.681
			c-0.23-0.209-0.517-0.361-0.854-0.45c-0.347-0.092-0.806-0.138-1.363-0.138c-1.02,0-1.805,0.192-2.334,0.57
			c-0.481,0.344-0.767,0.762-0.868,1.274l1.135,0.17c0.194-0.752,0.815-1.133,1.848-1.133c1.421,0,1.72,0.708,1.72,1.302V80.4
			l-0.154-0.004c-0.198-0.005-0.356-0.007-0.473-0.007c-2.915,0-4.332,0.786-4.332,2.402c0,0.619,0.204,1.118,0.626,1.524
			c0.416,0.403,0.979,0.607,1.674,0.607c1.171,0,1.946-0.509,2.37-1.557l0.253-0.625l0.035,0.673c0.026,0.489,0.1,0.944,0.219,1.354
			h1.285c-0.116-0.461-0.176-0.913-0.176-1.347V80.077z M196.484,81.831c0,0.546-0.176,1.04-0.521,1.469
			c-0.354,0.439-0.879,0.661-1.559,0.661c-0.479,0-0.847-0.125-1.093-0.371c-0.245-0.245-0.37-0.546-0.37-0.895
			c0-1.126,1.142-1.698,3.393-1.698h0.15V81.831z"/>
		<path fill="#11CFFF" d="M202.46,77.881c-0.352,0.297-0.635,0.782-0.841,1.441l-0.294,0.937v-2.6h-1.21v7.109h1.372v-3.283
			c0-0.531,0.146-1.084,0.431-1.645c0.286-0.562,0.849-0.862,1.674-0.894v-1.506c-0.025,0-0.049-0.001-0.069-0.001
			C203.159,77.44,202.813,77.584,202.46,77.881z"/>
		<polygon fill="#11CFFF" points="204.501,86.911 204.832,86.911 205.955,84.692 205.955,83.198 204.429,83.198 204.429,84.769 
			205.374,84.769 		"/>
		<path fill="#11CFFF" d="M10.907,93.518c-0.329,0.41-0.496,0.966-0.496,1.652v0.517H9.311v0.999h1.101v6.11h1.314v-6.11h1.643
			v-0.999h-1.643v-0.15c0-0.475,0.017-0.784,0.051-0.944c0.041-0.189,0.162-0.352,0.361-0.482c0.192-0.128,0.502-0.19,0.948-0.19
			c0.058,0,0.152,0.004,0.283,0.012v-1.008c-0.174-0.006-0.322-0.009-0.444-0.009C11.906,92.914,11.228,93.117,10.907,93.518z"/>
		<path fill="#11CFFF" d="M20.719,98.104c0-0.615-0.045-1.054-0.134-1.303c-0.086-0.242-0.247-0.471-0.477-0.68
			c-0.23-0.21-0.518-0.361-0.854-0.45c-0.347-0.092-0.805-0.138-1.363-0.138c-1.02,0-1.805,0.192-2.333,0.57
			c-0.482,0.345-0.768,0.763-0.869,1.274l1.134,0.17c0.194-0.752,0.815-1.133,1.848-1.133c1.421,0,1.72,0.708,1.72,1.302v0.711
			l-0.153-0.004c-0.199-0.005-0.357-0.007-0.474-0.007c-2.915,0-4.332,0.786-4.332,2.402c0,0.619,0.205,1.118,0.625,1.524
			c0.417,0.403,0.98,0.607,1.674,0.607c1.171,0,1.946-0.509,2.37-1.557l0.253-0.625l0.036,0.673c0.026,0.491,0.1,0.946,0.218,1.354
			h1.285c-0.116-0.459-0.174-0.911-0.174-1.347V98.104z M19.39,99.857c0,0.546-0.175,1.041-0.521,1.469
			c-0.354,0.439-0.878,0.661-1.558,0.661c-0.479,0-0.847-0.125-1.093-0.371c-0.246-0.246-0.37-0.546-0.37-0.895
			c0-1.126,1.141-1.698,3.392-1.698h0.15V99.857z"/>
		<path fill="#11CFFF" d="M25.366,95.908c-0.353,0.298-0.635,0.783-0.841,1.441l-0.293,0.941v-2.604h-1.211v7.109h1.373v-3.283
			c0-0.53,0.145-1.083,0.431-1.645c0.286-0.562,0.849-0.862,1.675-0.894v-1.506c-0.026-0.001-0.05-0.001-0.07-0.001
			C26.071,95.467,25.713,95.615,25.366,95.908z"/>
		<path fill="#11CFFF" d="M35.957,101.393l0.253-0.625l0.036,0.673c0.026,0.491,0.1,0.946,0.218,1.354h1.285
			c-0.116-0.459-0.174-0.911-0.174-1.347v-3.345c0-0.615-0.045-1.054-0.134-1.303c-0.086-0.242-0.247-0.471-0.477-0.68
			c-0.23-0.21-0.518-0.361-0.854-0.45c-0.347-0.092-0.805-0.138-1.363-0.138c-1.02,0-1.805,0.192-2.333,0.57
			c-0.482,0.345-0.768,0.763-0.869,1.274l1.134,0.17c0.194-0.752,0.815-1.133,1.848-1.133c1.421,0,1.72,0.708,1.72,1.302v0.711
			l-0.153-0.004c-0.199-0.005-0.357-0.007-0.474-0.007c-2.915,0-4.332,0.786-4.332,2.402c0,0.619,0.205,1.118,0.625,1.524
			c0.417,0.403,0.98,0.607,1.674,0.607C34.758,102.949,35.533,102.44,35.957,101.393z M32.704,100.723
			c0-1.126,1.141-1.698,3.392-1.698h0.15v0.833c0,0.546-0.175,1.041-0.521,1.469c-0.354,0.439-0.878,0.661-1.558,0.661
			c-0.479,0-0.847-0.125-1.093-0.371C32.829,101.372,32.704,101.071,32.704,100.723z"/>
		<polygon fill="#11CFFF" points="47.608,95.687 46.058,101.085 44.651,95.687 43.364,95.687 41.981,101.084 40.4,95.687 
			38.94,95.687 41.129,102.795 42.449,102.795 43.893,97.148 45.345,102.795 46.62,102.795 48.704,95.687 		"/>
		<path fill="#11CFFF" d="M55.884,98.104c0-0.615-0.045-1.054-0.134-1.303c-0.086-0.242-0.247-0.471-0.477-0.68
			c-0.23-0.21-0.518-0.361-0.854-0.45c-0.347-0.092-0.805-0.138-1.363-0.138c-1.02,0-1.805,0.192-2.333,0.57
			c-0.482,0.345-0.768,0.763-0.869,1.274l1.134,0.17c0.194-0.752,0.815-1.133,1.848-1.133c1.421,0,1.72,0.708,1.72,1.302v0.711
			l-0.153-0.004c-0.199-0.005-0.357-0.007-0.474-0.007c-2.915,0-4.332,0.786-4.332,2.402c0,0.619,0.205,1.118,0.625,1.524
			c0.417,0.403,0.98,0.607,1.674,0.607c1.171,0,1.946-0.509,2.37-1.557l0.253-0.625l0.036,0.673c0.026,0.491,0.1,0.946,0.218,1.354
			h1.285c-0.116-0.459-0.174-0.911-0.174-1.347V98.104z M54.555,99.857c0,0.546-0.175,1.041-0.521,1.469
			c-0.354,0.439-0.878,0.661-1.558,0.661c-0.479,0-0.847-0.125-1.093-0.371c-0.246-0.246-0.37-0.546-0.37-0.895
			c0-1.126,1.141-1.698,3.392-1.698h0.15V99.857z"/>
		<path fill="#11CFFF" d="M57.092,95.687l2.471,6.752c0.164,0.437,0.164,0.471,0.164,0.506c0,0.046-0.012,0.132-0.155,0.561
			c-0.108,0.324-0.262,0.556-0.458,0.689c-0.196,0.133-0.479,0.198-0.865,0.198l-0.65-0.012v1.036
			c0.348,0.026,0.621,0.04,0.811,0.04c0.515,0,0.917-0.131,1.192-0.389c0.287-0.269,0.516-0.654,0.683-1.146l2.815-8.237h-1.015
			l-1.647,5.199l-1.912-5.199H57.092z"/>
		<rect x="63.937" y="101.173" fill="#11CFFF" width="1.512" height="1.622"/>
		<rect x="71.309" y="101.173" fill="#11CFFF" width="1.512" height="1.622"/>
		<rect x="78.681" y="101.173" fill="#11CFFF" width="1.512" height="1.622"/>
		<rect x="86.052" y="101.173" fill="#11CFFF" width="1.512" height="1.622"/>
	</g>
</g>
</svg>
