<?xml version="1.0" encoding="utf-8"?>
<!-- Generator: Adobe Illustrator 16.0.0, SVG Export Plug-In . SVG Version: 6.00 Build 0)  -->
<!DOCTYPE svg PUBLIC "-//W3C//DTD SVG 1.1//EN" "http://www.w3.org/Graphics/SVG/1.1/DTD/svg11.dtd">
<svg version="1.1" id="Layer_1" xmlns="http://www.w3.org/2000/svg" xmlns:xlink="http://www.w3.org/1999/xlink" x="0px" y="0px"
	 width="2304px" height="979.2px" viewBox="0 0 2304 979.2" enable-background="new 0 0 2304 979.2" xml:space="preserve">
<g id="Layer_1_1_">
	<rect width="2304" height="979.2"/>
</g>
<path id="Mask" fill="#231F20" d="M2173.533,972.673v-17.983v-17.982h11.672h11.672c3.34,0,6.358,1.347,8.541,3.528
	c2.184,2.181,3.529,5.196,3.522,8.533c-0.003,1.423-0.279,2.663-0.734,3.747c-0.455,1.085-1.089,2.014-1.808,2.815
	c-0.887,0.989-1.701,1.696-2.566,2.288c-0.864,0.592-1.779,1.069-2.867,1.601c-0.064,0.031-0.107,0.085-0.131,0.147
	c-0.021,0.063-0.023,0.135-0.004,0.203c0.385,1.312,0.936,2.259,1.812,2.878c0.876,0.62,2.077,0.911,3.765,0.911h10.128h10.128
	c0.774,0,1.48-0.319,1.994-0.832c0.513-0.512,0.832-1.219,0.832-1.992c0-0.619-0.186-1.135-0.465-1.606
	c-0.279-0.471-0.652-0.897-1.029-1.339c-0.382-0.448-0.809-0.912-1.256-1.396c-0.446-0.484-0.912-0.989-1.373-1.519
	c-0.922-1.062-1.799-2.209-2.445-3.438s-1.063-2.539-1.063-3.925c0-2.928,1.18-5.569,3.092-7.48s4.557-3.092,7.484-3.096
	l23.73-0.021l23.73-0.022c1.23,0,2.352-0.505,3.163-1.317c0.813-0.813,1.317-1.933,1.317-3.162V491.199V50.185l0,0l0,0
	c0-1.23-0.505-2.351-1.317-3.164c-0.813-0.813-1.933-1.317-3.163-1.317l-1053.842-0.006L172.212,45.692l-0.791-2.593l-0.791-2.594
	c-0.028-0.088-0.083-0.162-0.153-0.214c-0.07-0.052-0.157-0.082-0.249-0.082h-8.011h-8.012c-0.092,0-0.179,0.03-0.25,0.082
	c-0.071,0.052-0.125,0.126-0.151,0.214l-0.809,2.594l-0.809,2.593h-5.354h-5.354l5.601-17.835l-6.628-6.068
	c-0.004,1.776-0.434,3.27-1.104,4.529c-0.001,0.001-0.001,0.002-0.002,0.003c-0.01,0.018-0.02,0.032-0.027,0.049
	c-0.073,0.136-0.15,0.269-0.229,0.398c-0.049,0.08-0.097,0.158-0.146,0.236c-0.015,0.021-0.028,0.044-0.042,0.064
	c-0.302,0.46-0.636,0.887-0.989,1.282c-1.158,1.29-2.191,2.099-3.374,2.8c-1.724,0.945-3.704,1.483-5.813,1.483h-11.595
	c-0.328-0.064-0.685,0.174-0.685,0.563v12.494h-6.247h-5.154H90.834c-2.736,0-4.389-0.414-5.638-1.109
	c-1.249-0.695-2.109-1.692-3.247-2.883l-8.516-8.896c-0.359-0.375-0.99-0.124-0.99,0.395V45.69l-48.886,0.012
	c-2.462,0-4.481,2.021-4.481,4.481v882.021c0,2.461,2.021,4.48,4.481,4.48l2059.695,0.019l3.683,14.137
	c0.104,0.403,0.685,0.417,0.807,0.018l4.316-14.152h12.706l4.316,14.152c0.121,0.399,0.7,0.388,0.807-0.018l3.684-14.137
	l40.281,0.001l11.084,35.966L2173.533,972.673z"/>
<path d="M2284.375,50.185c0-2.461-2.02-4.481-4.48-4.481L172.212,45.692l-1.581-5.187c-0.056-0.177-0.219-0.296-0.402-0.296h-16.023
	c-0.184,0-0.348,0.119-0.401,0.296l-1.618,5.187H141.48l11.201-35.671h18.811l8.483,27.303l2101.686-0.028
	c6.678,0,12.077,5.387,12.063,12.062v883.679c0.016,6.676-5.386,12.062-12.063,12.062l-44.703,0.003
	c-1.498,0-2.735,1.237-2.735,2.736c0,0.688,0.312,1.146,0.594,1.537c0.289,0.399,0.642,0.783,1.04,1.2
	c0.798,0.836,1.795,1.804,2.774,2.947c1.959,2.292,3.801,5.215,3.801,8.98c0,5.632-4.536,10.168-10.168,10.168h-28.94
	c-2.735,0-4.388-0.413-5.637-1.109c-1.25-0.694-2.108-1.691-3.247-2.882l-8.518-8.896c-0.357-0.374-0.989-0.123-0.989,0.396v12.493
	h-11.399v-35.966h23.344c6.679,0,12.077,5.388,12.063,12.062c-0.007,2.846-1.104,4.96-2.542,6.563
	c-1.774,1.979-3.258,2.826-5.434,3.889c-0.129,0.063-0.174,0.214-0.135,0.351c0.771,2.623,2.201,3.789,5.576,3.789h20.256
	c1.549,0,2.826-1.276,2.826-2.824c0-1.239-0.74-2.063-1.494-2.945c-0.764-0.896-1.708-1.854-2.629-2.914
	c-1.843-2.123-3.508-4.592-3.508-7.363c0-5.855,4.721-10.567,10.576-10.576l47.461-0.044c2.462,0,4.48-2.021,4.48-4.479V50.185
	L2284.375,50.185z M9.727,49.355C9.711,42.68,15.112,37.294,21.79,37.294l39.253,0.026v-2.551V9.726h23.345
	c6.678,0,12.077,5.386,12.063,12.061c-0.006,2.845-1.103,4.959-2.541,6.563c-1.776,1.979-3.259,2.826-5.435,3.887
	c-0.127,0.063-0.173,0.214-0.135,0.352c0.771,2.624,2.202,3.79,5.577,3.79h11.126V9.727h23.346c6.678,0,12.076,5.386,12.063,12.061
	c-0.004,1.776-0.434,3.27-1.104,4.529c-0.001,0.001-0.001,0.002-0.002,0.003c-0.01,0.018-0.02,0.032-0.027,0.049
	c-0.073,0.136-0.15,0.269-0.229,0.398c-0.049,0.08-0.097,0.158-0.146,0.236c-0.015,0.021-0.028,0.044-0.042,0.064
	c-0.302,0.46-0.636,0.887-0.989,1.282c-1.158,1.29-2.191,2.099-3.374,2.8c-1.724,0.945-3.704,1.483-5.813,1.483h-11.595
	c-0.328-0.064-0.685,0.174-0.685,0.563v12.494h-6.247h-5.154H90.834c-2.736,0-4.389-0.414-5.638-1.109
	c-1.249-0.695-2.109-1.692-3.247-2.883l-8.516-8.896c-0.359-0.375-0.99-0.124-0.99,0.395V45.69l-48.886,0.012
	c-2.462,0-4.481,2.021-4.481,4.481v882.021c0,2.461,2.021,4.48,4.481,4.48l2059.695,0.019l3.683,14.137
	c0.104,0.403,0.685,0.417,0.807,0.018l4.316-14.152h12.706l4.316,14.152c0.121,0.399,0.7,0.388,0.807-0.018l3.684-14.137h10.204
	l-10.986,35.965h-8.229l-5.813-20.257c-0.1-0.348-0.567-0.337-0.664,0l-5.813,20.257h-8.23l-7.65-25.048l-0.771-2.525H21.789
	c-6.678,0-12.077-5.386-12.063-12.062L9.727,49.355L9.727,49.355z M2195.108,944.666h-9.966c-0.116,0-0.212,0.095-0.212,0.211v8.542
	c0,0.115,0.096,0.211,0.212,0.211h9.966c2.461,0,4.479-2.021,4.479-4.48C2199.589,946.686,2197.569,944.666,2195.108,944.666z
	 M2145.203,943.991c-0.063-0.168-0.219-0.282-0.397-0.288c-0.187-0.005-0.354,0.109-0.419,0.283l-6.031,16.141
	c-0.052,0.138,0.051,0.283,0.196,0.283h12.281c0.146,0,0.246-0.146,0.196-0.281L2145.203,943.991z M2154.568,972.67l-1.581-5.187
	c-0.055-0.177-0.219-0.297-0.402-0.297h-16.021c-0.187,0-0.348,0.12-0.402,0.297l-1.618,5.187h-10.705l11.201-35.966h18.813
	l11.084,35.966H2154.568z M72.652,26.649h9.966c2.462,0,4.481-2.02,4.481-4.481s-2.021-4.48-4.481-4.48h-9.966
	c-0.116,0-0.21,0.095-0.21,0.211v8.541C72.442,26.556,72.536,26.649,72.652,26.649z M116.653,26.649h9.966
	c2.461,0,4.481-2.02,4.481-4.481s-2.021-4.48-4.481-4.48h-9.966c-0.116,0-0.21,0.095-0.21,0.211v8.541
	C116.443,26.556,116.537,26.649,116.653,26.649z M162.846,17.013c-0.063-0.169-0.22-0.283-0.398-0.288
	c-0.186-0.006-0.354,0.107-0.419,0.283l-6.032,16.14c-0.051,0.137,0.052,0.283,0.197,0.283h12.281c0.146,0,0.247-0.146,0.197-0.281
	L162.846,17.013z"/>
<path fill="#FFDE00" d="M2195.108,944.666h-9.966c-0.116,0-0.212,0.095-0.212,0.211v8.542c0,0.115,0.096,0.211,0.212,0.211h9.966
	c2.461,0,4.479-2.021,4.479-4.48C2199.589,946.686,2197.569,944.666,2195.108,944.666z M2195.108,951.104h-7.65v-3.911h7.65
	c1.097,0,1.954,0.857,1.954,1.956C2197.063,950.246,2196.205,951.104,2195.108,951.104z M2145.203,943.991
	c-0.063-0.168-0.219-0.282-0.397-0.288c-0.187-0.005-0.354,0.109-0.419,0.283l-6.031,16.141c-0.052,0.138,0.051,0.283,0.196,0.283
	h12.281c0.146,0,0.246-0.146,0.196-0.281L2145.203,943.991z M2141.878,957.884l2.881-8.105l2.787,8.105H2141.878z M2155.755,934.328
	c-0.026-0.089-0.107-0.147-0.2-0.147h-22.222c-0.092,0-0.173,0.061-0.199,0.147c-4.215,13.434-12.646,40.596-12.646,40.596
	c-0.042,0.136,0.061,0.272,0.201,0.272h15.556c0.093,0,0.174-0.062,0.201-0.147l1.707-5.333h12.803l1.709,5.333
	c0.026,0.088,0.106,0.147,0.199,0.147h15.215c0.143,0,0.243-0.139,0.201-0.272C2168.246,974.814,2159.931,947.761,2155.755,934.328z
	 M2154.568,972.67l-1.581-5.187c-0.055-0.177-0.219-0.297-0.402-0.297h-16.021c-0.187,0-0.348,0.12-0.402,0.297l-1.618,5.187
	h-10.705l11.201-35.966h18.813l11.084,35.966H2154.568z M72.652,26.649h9.966c2.462,0,4.481-2.02,4.481-4.481
	s-2.021-4.48-4.481-4.48h-9.966c-0.116,0-0.21,0.095-0.21,0.211v8.541C72.442,26.556,72.536,26.649,72.652,26.649z M74.968,20.213
	h7.649c1.099,0,1.956,0.856,1.956,1.955c0,1.098-0.857,1.955-1.956,1.955h-7.649V20.213z M116.653,26.649h9.966
	c2.461,0,4.481-2.02,4.481-4.481s-2.021-4.48-4.481-4.48h-9.966c-0.116,0-0.21,0.095-0.21,0.211v8.541
	C116.443,26.556,116.537,26.649,116.653,26.649z M118.969,20.213h7.649c1.099,0,1.955,0.856,1.955,1.955
	c0,1.098-0.856,1.955-1.955,1.955h-7.649C118.969,24.123,118.969,20.213,118.969,20.213z M162.846,17.013
	c-0.063-0.169-0.22-0.283-0.398-0.288c-0.186-0.006-0.354,0.107-0.419,0.283l-6.032,16.14c-0.051,0.137,0.052,0.283,0.197,0.283
	h12.281c0.146,0,0.247-0.146,0.197-0.281L162.846,17.013z M159.521,30.905l2.88-8.106l2.787,8.106H159.521z M9.727,49.355
	C9.711,42.68,15.112,37.294,21.79,37.294l39.253,0.026v-2.551V9.726h23.345c6.678,0,12.077,5.386,12.063,12.061
	c-0.006,2.845-1.103,4.959-2.541,6.563c-1.776,1.979-3.259,2.826-5.435,3.887c-0.127,0.063-0.173,0.214-0.135,0.352
	c0.771,2.624,2.202,3.79,5.577,3.79h11.126V9.727h23.346c6.678,0,12.076,5.386,12.063,12.061c-0.004,1.776-0.434,3.27-1.104,4.529
	c-0.001,0.001-0.001,0.002-0.002,0.003c-0.01,0.018-0.02,0.032-0.027,0.049c-0.073,0.136-0.15,0.269-0.229,0.398
	c-0.049,0.08-0.097,0.158-0.146,0.236c-0.015,0.021-0.028,0.044-0.042,0.064c-0.302,0.46-0.636,0.887-0.989,1.282
	c-1.158,1.29-2.191,2.099-3.374,2.8c-1.724,0.945-3.704,1.483-5.813,1.483h-11.595c-0.328-0.064-0.685,0.174-0.685,0.563v12.494
	h-6.247h-5.154H90.834c-2.736,0-4.389-0.414-5.638-1.109c-1.249-0.695-2.109-1.692-3.247-2.883l-8.516-8.896
	c-0.359-0.375-0.99-0.124-0.99,0.395V45.69l-48.886,0.012c-2.462,0-4.481,2.021-4.481,4.481v882.021c0,2.461,2.021,4.48,4.481,4.48
	l2059.695,0.019l3.683,14.137c0.104,0.403,0.685,0.417,0.807,0.018l4.316-14.152h12.706l4.316,14.152
	c0.121,0.399,0.7,0.388,0.807-0.018l3.684-14.137h10.204l-10.986,35.965h-8.229l-5.813-20.257c-0.1-0.348-0.567-0.337-0.664,0
	l-5.813,20.257h-8.23l-7.65-25.048l-0.771-2.525H21.789c-6.678,0-12.077-5.386-12.063-12.062L9.727,49.355L9.727,49.355z
	 M7.2,933.03c-0.017,8.046,6.547,14.592,14.589,14.592h2051.952l8.377,27.426c0.026,0.089,0.107,0.148,0.201,0.148h11.694
	c0.095,0,0.178-0.063,0.202-0.153l4.192-14.922l4.193,14.922c0.024,0.092,0.108,0.153,0.202,0.153h11.693
	c0.094,0,0.176-0.062,0.201-0.148l12.4-40.596c0.041-0.136-0.062-0.271-0.201-0.271H2111.8c-0.097,0-0.179,0.063-0.203,0.155
	l-2.286,8.32l-2.659-8.33c-0.028-0.087-0.109-0.146-0.201-0.146h-16.088c-0.091,0-0.173,0.06-0.2,0.146l-2.66,8.33l-2.286-8.32
	c-0.022-0.093-0.106-0.155-0.202-0.155l-2061.459-0.02c-1.099,0-1.956-0.856-1.956-1.954V50.185c0-1.098,0.857-1.955,1.956-1.955
	l51.2-0.013c0.116,0,0.21-0.095,0.21-0.21v-9.991l5.148,5.423c2.235,2.354,4.653,4.778,10.717,4.778h11.896h9.784h6.245
	c0.117,0,0.211-0.095,0.211-0.21V35.158h9.753c2.881,0,5.493-0.843,7.664-2.291c0,0,2.153-1.409,3.42-2.852
	c1.721-1.959,3.161-4.706,3.17-8.226c0.018-8.046-6.547-14.592-14.589-14.592h-25.658c-0.116,0-0.211,0.095-0.211,0.211v26.44h-8.26
	c-0.957,0-1.428-0.201-1.608-0.449c-0.307-0.417-0.198-0.489-0.144-0.525c1.125-0.744,2.032-1.418,3.3-2.859
	c1.72-1.959,3.161-4.706,3.17-8.226c0.017-8.046-6.548-14.592-14.59-14.592H58.726c-0.116,0-0.211,0.095-0.211,0.211v27.357H21.787
	c-8.042,0-14.604,6.546-14.589,14.592v883.671H7.2V933.03z M2284.375,50.185c0-2.461-2.02-4.481-4.48-4.481L172.212,45.692
	l-1.581-5.187c-0.056-0.177-0.219-0.296-0.402-0.296h-16.023c-0.184,0-0.348,0.119-0.401,0.296l-1.618,5.187H141.48l11.201-35.671
	h18.811l8.483,27.303l2101.686-0.028c6.678,0,12.077,5.387,12.063,12.062v883.679c0.016,6.676-5.386,12.062-12.063,12.062
	l-44.703,0.003c-1.498,0-2.735,1.237-2.735,2.736c0,0.688,0.312,1.146,0.594,1.537c0.289,0.399,0.642,0.783,1.04,1.2
	c0.798,0.836,1.795,1.804,2.774,2.947c1.959,2.292,3.801,5.215,3.801,8.98c0,5.632-4.536,10.168-10.168,10.168h-28.94
	c-2.735,0-4.388-0.413-5.637-1.109c-1.25-0.694-2.108-1.691-3.247-2.882l-8.518-8.896c-0.357-0.374-0.989-0.123-0.989,0.396v12.493
	h-11.399v-35.966h23.344c6.679,0,12.077,5.388,12.063,12.062c-0.007,2.846-1.104,4.96-2.542,6.563
	c-1.774,1.979-3.258,2.826-5.434,3.889c-0.129,0.063-0.174,0.214-0.135,0.351c0.771,2.623,2.201,3.789,5.576,3.789h20.256
	c1.549,0,2.826-1.276,2.826-2.824c0-1.239-0.74-2.063-1.494-2.945c-0.764-0.896-1.708-1.854-2.629-2.914
	c-1.843-2.123-3.508-4.592-3.508-7.363c0-5.855,4.721-10.567,10.576-10.576l47.461-0.044c2.462,0,4.48-2.021,4.48-4.479V50.185
	L2284.375,50.185z M2281.85,932.206c0,1.099-0.857,1.955-1.956,1.955l-47.461,0.045c-7.221,0.009-13.103,5.881-13.103,13.104
	c0,3.757,2.15,6.743,4.124,9.019c0.984,1.138,1.899,2.134,2.563,2.918c0.35,0.412,0.549,0.666,0.854,1.076
	c0.189,0.254,0.039,0.512-0.212,0.512h-19.914c-0.956,0-1.427-0.202-1.607-0.45c-0.307-0.416-0.198-0.487-0.145-0.524
	c1.125-0.745,2.032-1.417,3.299-2.859c1.721-1.959,3.162-4.705,3.17-8.226c0.018-8.045-6.546-14.591-14.589-14.591h-25.659
	c-0.115,0-0.21,0.094-0.21,0.21v40.596c0,0.116,0.095,0.211,0.21,0.211h16.031c0.115,0,0.211-0.095,0.211-0.211V965l5.147,5.423
	c2.233,2.354,4.652,4.777,10.716,4.777h28.939c6.996,0,12.694-5.697,12.694-12.693c0-4.594-2.264-8.113-4.407-10.622
	c-1.073-1.255-1.751-1.896-2.265-2.409c-0.336-0.336-1.238-1.176-1.498-1.436c-0.154-0.153-0.039-0.411,0.172-0.411l44.702-0.002
	c8.042,0,14.604-6.547,14.589-14.593V49.36c0.018-8.046-6.547-14.592-14.589-14.592L181.826,34.771l-8.432-27.129
	c-0.027-0.089-0.108-0.148-0.201-0.148h-22.221c-0.093,0-0.174,0.062-0.2,0.148l-12.646,40.301
	c-0.042,0.136,0.061,0.273,0.201,0.273h15.556c0.094,0,0.173-0.062,0.201-0.148l1.707-5.333h12.803l1.708,5.333
	c0.027,0.088,0.108,0.148,0.2,0.148l2109.388,0.013c1.098,0,1.955,0.857,1.955,1.955v882.021L2281.85,932.206L2281.85,932.206z"/>
</svg>
