<?xml version="1.0" encoding="utf-8"?>
<!-- Generator: Adobe Illustrator 16.0.0, SVG Export Plug-In . SVG Version: 6.00 Build 0)  -->
<!DOCTYPE svg PUBLIC "-//W3C//DTD SVG 1.1//EN" "http://www.w3.org/Graphics/SVG/1.1/DTD/svg11.dtd">
<svg version="1.1" id="Layer_1" xmlns="http://www.w3.org/2000/svg" xmlns:xlink="http://www.w3.org/1999/xlink" x="0px" y="0px"
	 width="693.615px" height="419.375px" viewBox="0 0 693.615 419.375" enable-background="new 0 0 693.615 419.375"
	 xml:space="preserve">
<g id="Layer_1_1_">
	<rect width="693.615" height="419.375"/>
</g>
<g>
	<path fill="#FFDE00" d="M461.007,247.938h-33.973c-0.396,0-0.718,0.321-0.718,0.718v29.118c0,0.396,0.321,0.718,0.718,0.718h33.973
		c8.391,0,15.276-6.887,15.276-15.277S469.397,247.938,461.007,247.938z M461.007,269.881h-26.08v-13.332h26.08
		c3.741,0,6.666,2.924,6.666,6.666S464.748,269.881,461.007,269.881z"/>
	<path fill="#FFDE00" d="M666.564,212.19l-78.315,0.091c-24.618,0.027-44.665,20.045-44.665,44.664
		c0,12.805,7.334,22.99,14.058,30.742c3.361,3.876,6.479,7.271,8.738,9.947c1.188,1.406,1.87,2.271,2.912,3.67
		c0.647,0.867,0.134,1.742-0.722,1.742h-67.888c-3.261,0-4.865-0.689-5.484-1.534c-1.043-1.421-0.677-1.666-0.488-1.791
		c3.835-2.54,6.929-4.833,11.246-9.749c5.864-6.678,10.779-16.044,10.805-28.04c0.059-27.428-22.315-49.741-49.732-49.741h-87.474
		c-0.396,0-0.717,0.32-0.717,0.717v138.391c0,0.396,0.321,0.718,0.717,0.718h54.651c0.396,0,0.718-0.321,0.718-0.718v-34.058
		l17.551,18.485c7.618,8.024,15.863,16.29,36.532,16.29h98.659c23.851,0,43.275-19.424,43.275-43.275
		c0-15.657-7.713-27.659-15.025-36.21c-3.658-4.277-5.969-6.465-7.717-8.213c-1.146-1.146-4.225-4.008-5.106-4.89
		c-0.528-0.528-0.132-1.406,0.583-1.406h62.889c0.396,0,0.717-0.321,0.717-0.718v-44.396
		C667.281,212.512,666.96,212.189,666.564,212.19z M658.672,249.412h-54.996c-5.107,0-9.328,4.219-9.328,9.328
		c0,2.345,1.057,3.912,2.019,5.244c0.988,1.367,2.188,2.672,3.547,4.094c2.721,2.848,6.12,6.145,9.46,10.05
		c6.681,7.812,12.958,17.774,12.958,30.613c0,19.198-15.467,34.665-34.665,34.665h-98.659c-9.33,0-14.959-1.411-19.218-3.782
		s-7.189-5.771-11.069-9.825l-29.031-30.332c-1.223-1.276-3.375-0.42-3.375,1.348v42.592h-38.866V220.801h79.581
		c22.764,0,41.171,18.361,41.122,41.113c-0.021,9.699-3.759,16.91-8.663,22.376c-6.054,6.748-11.108,9.636-18.524,13.253
		c-0.437,0.212-0.593,0.728-0.456,1.193c2.624,8.943,7.504,12.92,19.012,12.92h69.052c5.276,0,9.634-4.355,9.634-9.633
		c0-4.229-2.525-7.035-5.094-10.045c-2.602-3.049-5.824-6.313-8.964-9.933c-6.277-7.238-11.952-15.651-11.952-25.101
		c0-19.967,16.089-36.029,36.055-36.055l70.423-0.087V249.412z"/>
	<path fill="#FFDE00" d="M290.877,245.639c-0.208-0.574-0.744-0.965-1.355-0.981c-0.635-0.018-1.208,0.371-1.431,0.966
		l-20.562,55.021c-0.175,0.468,0.173,0.967,0.672,0.967h41.864c0.496,0,0.844-0.493,0.675-0.96L290.877,245.639z M279.545,293
		l9.815-27.638L298.862,293H279.545z"/>
	<path fill="#FFDE00" d="M326.851,212.695c-0.093-0.301-0.371-0.504-0.685-0.504h-75.75c-0.314,0-0.591,0.203-0.685,0.504
		c-14.368,45.795-43.104,138.391-43.104,138.391c-0.145,0.461,0.201,0.931,0.685,0.931h53.029c0.314,0,0.59-0.205,0.686-0.505
		l5.821-18.182h43.644l5.822,18.183c0.096,0.299,0.371,0.504,0.685,0.504h51.866c0.484,0,0.83-0.469,0.686-0.931
		C369.436,350.718,341.084,258.49,326.851,212.695z M322.807,343.406l-5.391-17.679c-0.183-0.601-0.743-1.008-1.371-1.008H261.42
		c-0.628,0-1.184,0.408-1.371,1.008l-5.518,17.679h-36.495l38.187-122.605h64.133l37.782,122.605H322.807z"/>
	<path fill="#FFDE00" d="M228.49,212.191h-51.468c-0.323,0-0.606,0.216-0.692,0.527l-7.793,28.37l-9.07-28.399
		c-0.095-0.297-0.371-0.498-0.683-0.498H103.94c-0.313,0-0.589,0.201-0.684,0.499l-9.068,28.397l-7.792-28.369
		c-0.085-0.312-0.369-0.527-0.692-0.527H34.234c-0.482,0-0.827,0.466-0.686,0.927l42.273,138.391
		c0.092,0.302,0.371,0.508,0.686,0.508h39.868c0.321,0,0.604-0.213,0.69-0.522l14.296-50.867l14.297,50.867
		c0.087,0.31,0.37,0.522,0.69,0.522h39.867c0.315,0,0.594-0.206,0.686-0.508l42.273-138.391
		C229.316,212.656,228.972,212.191,228.49,212.191z M180.375,343.406h-28.059l-19.819-69.057c-0.34-1.184-1.938-1.15-2.269,0
		l-19.818,69.057H82.349L44.897,220.801h34.789l12.552,48.188c0.359,1.379,2.333,1.421,2.75,0.058l14.716-48.245h43.315
		l14.717,48.245c0.416,1.363,2.39,1.321,2.75-0.058l12.553-48.188h34.788L180.375,343.406z"/>
	<path fill="#FFDE00" d="M169.688,130.057h33.973c8.391,0,15.276-6.886,15.276-15.276c0-8.391-6.886-15.277-15.276-15.277h-33.973
		c-0.396,0-0.718,0.321-0.718,0.718v29.118C168.97,129.736,169.291,130.057,169.688,130.057z M177.58,108.114h26.08
		c3.742,0,6.667,2.924,6.667,6.667c0,3.742-2.925,6.666-6.667,6.666h-26.08V108.114z"/>
	<path fill="#FFDE00" d="M319.688,130.057h33.973c8.391,0,15.276-6.886,15.276-15.276c0-8.391-6.886-15.277-15.276-15.277h-33.973
		c-0.396,0-0.718,0.321-0.718,0.718v29.118C318.97,129.736,319.291,130.057,319.688,130.057z M327.58,108.114h26.08
		c3.742,0,6.667,2.924,6.667,6.667c0,3.742-2.925,6.666-6.667,6.666h-26.08V108.114z"/>
	<path fill="#FFDE00" d="M477.156,97.204c-0.208-0.575-0.744-0.965-1.355-0.981c-0.635-0.018-1.208,0.371-1.431,0.966
		l-20.562,55.021c-0.175,0.468,0.173,0.967,0.673,0.967h41.864c0.496,0,0.844-0.493,0.675-0.959L477.156,97.204z M465.823,144.565
		l9.815-27.638l9.502,27.638H465.823z"/>
</g>
<path fill="#FFDE00" d="M666.564,157.746h-124.69L513.13,65.261c-0.093-0.3-0.371-0.503-0.686-0.503h-75.75
	c-0.314,0-0.592,0.204-0.686,0.503l-43.104,137.388c-0.145,0.462,0.201,0.931,0.686,0.931h53.029c0.314,0,0.589-0.205,0.685-0.504
	l5.821-18.182h43.645l5.821,18.183c0.096,0.299,0.371,0.504,0.685,0.504h47.399h4.468h111.421c0.396,0,0.717-0.321,0.717-0.718
	v-44.396C667.281,158.069,666.96,157.745,666.564,157.746z M544.418,194.972h-35.332l-5.392-17.679
	c-0.188-0.6-0.743-1.008-1.371-1.008h-54.625c-0.627,0-1.184,0.408-1.37,1.008l-5.519,17.679h-36.494L442.503,73.37h64.133
	l26.216,84.376l2.703,8.699l9.021-0.006l114.097-0.077v28.608H553.442L544.418,194.972z"/>
<path fill="#FFDE00" d="M359.685,63.756h-87.473c-0.396,0-0.718,0.321-0.718,0.718v90.138H243.34c-3.262,0-4.866-0.688-5.485-1.533
	c-1.043-1.422-0.677-1.667-0.488-1.792c3.835-2.541,6.929-4.833,11.247-9.75c5.863-6.678,10.778-16.043,10.805-28.04
	c0.059-27.428-22.316-49.742-49.733-49.742h-87.473c-0.396,0-0.718,0.321-0.718,0.718v93.272H34.233
	c-0.396-0.001-0.717,0.323-0.717,0.72v44.396c0,0.396,0.321,0.718,0.717,0.718h87.969c0.003,0,0.006,0.002,0.01,0.002h54.65
	c0.396,0,0.718-0.321,0.718-0.717v-34.058l17.551,18.486c7.619,8.024,15.864,16.29,36.532,16.29h40.549h33.355h21.295
	c0.396,0,0.718-0.321,0.718-0.717v-43.796h33.247c9.82,0,18.729-2.875,26.127-7.811l0.412,0.029
	c3.835-2.541,6.929-4.833,11.247-9.75c5.863-6.678,10.778-16.043,10.805-28.04C409.477,86.07,387.102,63.756,359.685,63.756z
	 M121.494,194.97H42.125v-28.608l79.369,0.071l8.61,0.008v-8.694V72.367h79.58c22.765,0,41.172,18.361,41.123,41.113
	c-0.021,9.698-3.76,16.909-8.664,22.375c-6.054,6.748-11.107,9.636-18.524,13.252c-0.436,0.212-0.592,0.729-0.456,1.194
	c2.624,8.944,7.505,12.92,19.012,12.92h37.93V72.367h79.58c22.765,0,41.172,18.361,41.123,41.113
	c-0.013,6.058-1.477,11.145-3.77,15.443c-0.001,0.003-0.002,0.006-0.004,0.009c-0.03,0.057-0.064,0.111-0.095,0.168
	c-0.251,0.458-0.512,0.91-0.779,1.358c-0.165,0.271-0.331,0.541-0.501,0.806c-0.047,0.074-0.096,0.148-0.143,0.223
	c-1.029,1.569-2.165,3.022-3.373,4.369c-3.947,4.399-7.472,7.156-11.5,9.545c-5.876,3.222-12.628,5.057-19.816,5.057h-39.521
	c-1.123-0.218-2.336,0.594-2.336,1.922v42.593h-21.296h-17.569h-48.441c-9.329,0-14.959-1.412-19.218-3.783
	c-4.258-2.371-7.189-5.771-11.069-9.825l-29.031-30.332c-1.223-1.277-3.375-0.421-3.375,1.347v42.593h-18.848v-0.002h-20.017
	H121.494z"/>
</svg>
